<?xml version="1.0" encoding="UTF-8" standalone="no"?>
<!-- Created with Inkscape (http://www.inkscape.org/) -->

<svg
   version="1.1"
   id="svg1"
   width="512"
   height="512"
   viewBox="0 0 512 512"
   sodipodi:docname="accessibility.png"
   xmlns:inkscape="http://www.inkscape.org/namespaces/inkscape"
   xmlns:sodipodi="http://sodipodi.sourceforge.net/DTD/sodipodi-0.dtd"
   xmlns="http://www.w3.org/2000/svg"
   xmlns:svg="http://www.w3.org/2000/svg">
  <defs
     id="defs1" />
  <sodipodi:namedview
     id="namedview1"
     pagecolor="#ffffff"
     bordercolor="#000000"
     borderopacity="0.25"
     inkscape:showpageshadow="2"
     inkscape:pageopacity="0.0"
     inkscape:pagecheckerboard="0"
     inkscape:deskcolor="#d1d1d1"
     inkscape:zoom="1.5683594"
     inkscape:cx="255.6812"
     inkscape:cy="256"
     inkscape:window-width="1854"
     inkscape:window-height="1011"
     inkscape:window-x="66"
     inkscape:window-y="32"
     inkscape:window-maximized="1"
     inkscape:current-layer="g1">
    <inkscape:page
       x="0"
       y="0"
       width="512"
       height="512"
       id="page2"
       margin="0"
       bleed="0" />
  </sodipodi:namedview>
  <g
     inkscape:groupmode="layer"
     inkscape:label="Image"
     id="g1">
    <path
       style="fill:#ffffff;fill-opacity:1"
       d="m 173.00968,511.61338 c -11.96778,-3.02241 -20.2479,-11.79443 -22.17019,-23.48725 -0.49401,-3.00494 3.48443,-26.71765 15.85579,-94.50532 21.75826,-119.22236 27.45759,-162.16837 23.13112,-174.2994 -1.77312,-4.97166 -4.04509,-7.39166 -9.55119,-10.1735 -2.475,-1.25044 -25.875,-8.91039 -52,-17.0221 -52.459967,-16.28863 -62.914237,-20.49768 -71.003747,-28.5872 -8.85227,-8.85227 -10.38379,-21.1604 -4.24275,-34.0971 6.94884,-14.63839 17.45832,-19.55188 31.83135,-14.88206 40.029167,13.00555 112.083137,27.22358 152.915147,30.17395 42.86683,3.0974 102.59209,-5.784 179.06264,-26.62737 11.03445,-3.00763 21.15945,-5.46591 22.5,-5.46284 12.04151,0.0276 24.00393,13.39496 25.56133,28.56352 1.42342,13.8637 -5.23987,23.84768 -20.91087,31.33192 -4.51721,2.15735 -29.8131,11.44664 -56.2131,20.64287 -26.4,9.19622 -50.07335,17.76101 -52.60744,19.03286 -8.11088,4.07083 -10.63262,6.85666 -11.9565,13.20868 -2.83983,13.62556 3.27653,56.46089 23.69385,165.93777 9.3817,50.30433 16.54151,91.21977 16.52155,94.41406 -0.0889,14.2201 -11.24595,24.72075 -28.17219,26.51463 -15.7591,1.67018 -27.60019,-6.29628 -32.92585,-22.15189 -1.10842,-3.3 -4.07982,-16.575 -6.60311,-29.5 -15.14756,-77.58989 -28.51866,-127.256 -36.59317,-135.92296 -1.99324,-2.1395 -2.11749,-2.15148 -4.0647,-0.392 -8.11631,7.33382 -21.20882,55.98353 -36.28114,134.81496 -5.37736,28.12475 -5.95999,30.47854 -9.05726,36.5907 -5.61395,11.07859 -13.03673,15.89798 -25.38139,16.47939 -4.16496,0.19615 -9.26714,-0.0713 -11.33818,-0.59432 z m 70.6125,-400.96104 c -8.33055,-2.18383 -13.15609,-4.49451 -19.9463,-9.55117 -8.64433,-6.437413 -15.88306,-16.522943 -19.57487,-27.273123 -3.25797,-9.48687 -3.25797,-24.89401 0,-34.38088 5.8087,-16.91433 19.06942,-30.1750599 35.98376,-35.9837599 8.81556,-3.02743001 24.89617,-3.24004001 33.19044,-0.43884 13.58582,4.5883 23.57922,12.2529499 31.05354,23.8171699 11.46243,17.73461 11.46243,41.85713 0,59.59174 -8.16377,12.63094 -19.10471,20.508743 -33.64955,24.228693 -9.53341,2.43823 -17.72988,2.43525 -27.05702,-0.01 z"
       id="path1" />
  </g>
</svg>
