<?xml version="1.0" encoding="UTF-8" standalone="no"?>
<!-- Created with Inkscape (http://www.inkscape.org/) -->

<svg
   width="210mm"
   height="210mm"
   viewBox="0 0 210 210"
   version="1.1"
   id="svg1"
   inkscape:version="1.4.4 (dcaf3e7d9e, 2026-05-05)"
   sodipodi:docname="agua.svg"
   xml:space="preserve"
   xmlns:inkscape="http://www.inkscape.org/namespaces/inkscape"
   xmlns:sodipodi="http://sodipodi.sourceforge.net/DTD/sodipodi-0.dtd"
   xmlns:xlink="http://www.w3.org/1999/xlink"
   xmlns="http://www.w3.org/2000/svg"
   xmlns:svg="http://www.w3.org/2000/svg"><sodipodi:namedview
     id="namedview1"
     pagecolor="#ffffff"
     bordercolor="#000000"
     borderopacity="0.25"
     inkscape:showpageshadow="2"
     inkscape:pageopacity="0.0"
     inkscape:pagecheckerboard="0"
     inkscape:deskcolor="#d1d1d1"
     inkscape:document-units="mm"
     inkscape:zoom="0.27930718"
     inkscape:cx="397.41191"
     inkscape:cy="273.89199"
     inkscape:window-width="1534"
     inkscape:window-height="831"
     inkscape:window-x="0"
     inkscape:window-y="0"
     inkscape:window-maximized="1"
     inkscape:current-layer="layer1" /><defs
     id="defs1"><linearGradient
       id="linearGradient8"
       inkscape:collect="always"><stop
         style="stop-color:#399fab;stop-opacity:1;"
         offset="0"
         id="stop8" /><stop
         style="stop-color:#2e818b;stop-opacity:1;"
         offset="1"
         id="stop9" /></linearGradient><linearGradient
       inkscape:collect="always"
       xlink:href="#linearGradient8"
       id="linearGradient9"
       x1="68.204475"
       y1="82.413742"
       x2="31.260386"
       y2="152.51279"
       gradientUnits="userSpaceOnUse" /></defs><g
     inkscape:label="Layer 1"
     inkscape:groupmode="layer"
     id="layer1"><path
       style="fill:url(#linearGradient9);fill-opacity:1;stroke-width:0.912;stroke:#000000;stroke-opacity:1;stroke-dasharray:none"
       d="m 39.201839,188.22866 c -7.147068,-7.53735 -14.618178,-23.55678 -18.804461,-40.3202 -1.874437,-7.50593 -2.183976,-10.5262 -2.209625,-21.56006 -0.02529,-10.90141 0.250494,-13.80372 1.83387,-19.29615 C 23.456785,95.136337 29.364375,85.583657 38.395741,77.340894 48.471216,68.145198 57.673,63.878612 74.688466,60.513052 c 14.381693,-2.844616 17.284893,-3.925706 25.916484,-9.650786 4.12006,-2.732714 8.60264,-5.28738 9.9613,-5.677037 3.26689,-0.936934 6.32452,0.299801 6.95536,2.813272 0.27721,1.104478 1.59107,3.049604 2.91968,4.322501 1.93526,1.8541 3.36489,2.38302 7.18873,2.659611 11.30228,0.817534 30.66916,-10.670694 36.29795,-21.531555 3.594,-6.934685 9.42828,-3.780306 9.42828,5.097518 0,8.278216 -6.02581,13.691697 -23.17922,20.823763 -15.99396,6.649989 -23.0831,10.567195 -28.29429,15.634415 -5.31596,5.169093 -6.61574,8.337123 -4.41726,10.766423 0.78413,0.86646 2.44712,1.79972 3.69552,2.07392 3.79939,0.83448 14.09726,-1.83901 22.26022,-5.77912 4.91498,-2.37236 8.83514,-3.724996 10.76178,-3.713294 5.01584,0.03047 8.41148,3.860814 8.41148,9.488324 0,10.34673 -11.3407,16.473633 -26.85198,14.506973 -9.77784,-1.2397 -16.24034,-3.983893 -26.42648,-11.221553 -4.63181,-3.29108 -8.12783,-3.69633 -9.912068,-1.14898 -1.57324,2.24611 -0.89013,4.60849 2.481208,8.5807 3.66583,4.319193 3.7349,7.783713 0.21423,10.746153 -3.132358,2.63572 -8.243125,2.87689 -12.030038,0.56769 -1.415434,-0.86311 -4.76815,-3.87194 -7.450465,-6.6863 -2.682328,-2.81435 -6.399774,-6.018273 -8.261006,-7.119833 -5.191911,-3.07279 -10.842196,-2.46279 -12.120249,1.3085 -0.841487,2.48305 1.001267,4.846093 5.863624,7.519193 5.57263,3.06357 7.275406,5.51005 5.512502,7.92009 -0.968086,1.32347 -2.340652,1.53535 -10.115975,1.56156 -10.174846,0.0342 -12.695474,-0.92056 -16.96558,4.69767 -2.175226,2.86197 0.582864,9.22444 0.539782,19.24134 -0.02462,5.72099 -3.433543,7.10336 -3.522759,7.64479 -0.08924,0.54145 -1.692688,2.75277 -3.563272,4.91406 -3.235684,3.73853 -3.383275,4.14404 -3.03535,8.3395 0.315961,3.81012 1.141901,5.54284 6.072681,12.73973 4.62349,6.74838 5.706988,8.93411 5.706988,11.51264 0,5.98701 -5.677165,8.8253 -9.528434,4.76373 z M 115.5075,116.60002 c -1.26953,-2.37213 0.38611,-4.32472 3.66705,-4.32472 2.42857,0 2.85627,0.28511 2.85627,1.904 0,1.0472 -0.44702,2.35104 -0.9934,2.89741 -1.47485,1.47485 -4.6311,1.20278 -5.52992,-0.47669 z m 54.341,-36.250243 c -3.97388,-2.156201 -3.99776,-6.478044 -0.0617,-11.155827 6.88241,-8.179283 17.59158,-5.734531 13.87234,3.166859 -1.64331,3.933 -4.24211,6.724968 -7.58589,8.149728 -3.24057,1.38079 -3.39088,1.37691 -6.22478,-0.16076 z M 152.66052,33.276692 c 0,-3.339426 3.82496,-5.968665 4.73059,-3.251763 0.33595,1.007839 -2.86792,5.262206 -3.96285,5.262206 -0.42225,0 -0.76774,-0.9047 -0.76774,-2.010443 z"
       id="path1"
       sodipodi:nodetypes="sscsssssssssssssssssssssssssssscsssssssssssssssssssssss" /><path
       style="fill:#399fab;fill-opacity:1;stroke:#000000;stroke-width:0.912;stroke-opacity:1;stroke-dasharray:none"
       d="m 127.28571,36.231139 c 0,0 5.72071,-4.290528 10.01124,-11.918138 4.29053,-7.627608 13.54257,-18.9099858 19.74369,-8.315038 4.26714,7.29064 -9.73671,16.40235 -17.36432,19.739428 -7.62761,3.337081 -12.39061,0.493748 -12.39061,0.493748 z"
       id="path2"
       sodipodi:nodetypes="csssc" /><path
       style="fill:#ffffff;fill-opacity:1;stroke:none;stroke-width:0.446"
       d="m 97.565103,60.003719 c 0,0 8.712017,-3.41107 10.866817,-4.488468 3.30729,-1.653645 7.32329,-2.598584 4.48846,-5.433407 -2.83482,-2.834822 -13.229162,8.031993 -15.355277,9.921875 z"
       id="path4"
       sodipodi:nodetypes="cssc" /><path
       style="fill:#ffffff;fill-opacity:1;stroke:none;stroke-width:0.446"
       d="m 139.61495,89.060638 c 0,0 8.7407,-3.071056 10.15811,-4.724702 1.41741,-1.653645 3.77976,-4.488468 6.61459,-2.126114 2.83482,2.36235 -8.50447,8.031993 -16.7727,6.850816 z"
       id="path5" /><path
       style="fill:#ffffff;fill-opacity:1;stroke:none;stroke-width:0.446"
       d="m 141.9773,23.387276 c 0,0 3.07106,-5.197172 4.96094,-6.850818 1.88988,-1.653646 2.12612,-2.598586 4.016,-1.889881 1.88988,0.708705 -2.36235,5.433408 -8.97694,8.740699 z"
       id="path6" /><path
       style="fill:#ffffff;fill-opacity:1;stroke:none;stroke-width:0.446"
       d="m 173.86905,70.398065 c 0,0 6.61458,-1.653646 6.37834,-3.307292 -0.23623,-1.653645 -5.19717,0 -6.37834,3.307292 z"
       id="path7" /></g></svg>
