<?xml version="1.0" encoding="UTF-8" standalone="no"?>
<!-- Created with Inkscape (http://www.inkscape.org/) -->

<svg
   width="210mm"
   height="210mm"
   viewBox="0 0 210 210"
   version="1.1"
   id="svg1"
   inkscape:version="1.4.4 (dcaf3e7d9e, 2026-05-05)"
   sodipodi:docname="agua.svg"
   xml:space="preserve"
   xmlns:inkscape="http://www.inkscape.org/namespaces/inkscape"
   xmlns:sodipodi="http://sodipodi.sourceforge.net/DTD/sodipodi-0.dtd"
   xmlns:xlink="http://www.w3.org/1999/xlink"
   xmlns="http://www.w3.org/2000/svg"
   xmlns:svg="http://www.w3.org/2000/svg"><sodipodi:namedview
     id="namedview1"
     pagecolor="#ffffff"
     bordercolor="#000000"
     borderopacity="0.25"
     inkscape:showpageshadow="2"
     inkscape:pageopacity="0.0"
     inkscape:pagecheckerboard="0"
     inkscape:deskcolor="#d1d1d1"
     inkscape:document-units="mm"
     inkscape:zoom="0.1975"
     inkscape:cx="308.86076"
     inkscape:cy="250.63291"
     inkscape:window-width="1534"
     inkscape:window-height="831"
     inkscape:window-x="0"
     inkscape:window-y="0"
     inkscape:window-maximized="1"
     inkscape:current-layer="layer1" /><defs
     id="defs1"><linearGradient
       id="linearGradient8"
       inkscape:collect="always"><stop
         style="stop-color:#399fab;stop-opacity:1;"
         offset="0"
         id="stop8" /><stop
         style="stop-color:#2e818b;stop-opacity:1;"
         offset="1"
         id="stop9" /></linearGradient><linearGradient
       inkscape:collect="always"
       xlink:href="#linearGradient8"
       id="linearGradient9"
       x1="35.660583"
       y1="112.29188"
       x2="49.262707"
       y2="230.39848"
       gradientUnits="userSpaceOnUse"
       gradientTransform="matrix(0.78871301,0.34570477,-0.34570477,0.78871301,70.690143,-39.784305)" /></defs><g
     inkscape:label="Layer 1"
     inkscape:groupmode="layer"
     id="layer1"><path
       id="path1"
       style="fill:url(#linearGradient9);fill-opacity:1;stroke:#000000;stroke-width:0.785369;stroke-dasharray:none;stroke-opacity:1"
       d="M 90.160388,31.501953 C 89.203734,31.522112 48.987803,32.616465 23.453349,74.445068 5.9894455,103.05311 6.4357619,127.0747 16.526123,149.81308 c 0,0 2.297868,6.71152 8.356596,15.19442 6.643009,9.31747 17.111489,20.25326 32.427997,26.81747 29.839459,12.78834 64.978644,8.09105 80.519114,-1.89445 17.05112,-10.95616 30.49329,-24.97345 23.20851,-28.89194 -5.1764,-2.78439 -9.90177,4.30785 -20.84028,12.3143 -17.02826,12.46385 -28.17406,12.2557 -45.680719,10.20051 -12.808808,-1.50369 -38.430161,-17.54848 -30.57557,-46.67068 4.736423,-14.20926 13.403093,-22.40687 8.051742,-29.83951 -6.460706,-8.973464 -24.629477,9.94632 -24.629477,13.73546 0,0.46074 3.058755,-19.78555 31.079753,-28.009088 10.920024,-3.686667 13.378681,-14.705391 7.106342,-18.909605 -6.272339,-4.204214 -21.275675,-1.593918 -19.826053,-2.136471 4.37856,-1.638771 10.653733,-5.393031 18.868002,-5.043657 7.714753,0.328128 10.765655,3.081363 18.14878,12.168182 2.40862,2.964417 7.30772,3.869551 10.68943,2.873596 3.80092,-1.119405 4.94415,-3.875968 3.54603,-8.549866 -1.28581,-4.298421 -1.00809,-6.397714 1.00924,-7.625374 2.28788,-1.392309 4.90531,0.136114 7.42074,4.333069 5.53185,9.229835 9.67996,13.628486 16.9633,17.986499 11.55406,6.913452 22.61684,6.001558 26.19375,-2.159042 1.94546,-4.43849 0.59173,-8.633583 -3.3538,-10.391614 -1.51552,-0.67528 -5.07537,-0.96366 -9.77201,-0.791682 -7.80036,0.28564 -11.65502,0.0066 -14.36317,-1.965072 -0.88984,-0.647843 -2.97679,-2.515971 -3.53746,-7.099962 -0.53893,-4.406204 3.33241,-6.77882 9.71763,-6.796976 6.36426,-0.0181 11.30009,4.366713 21.52485,4.818429 15.98201,0.706063 22.45134,-6.40308 25.31316,-12.932217 3.0691,-7.002055 -0.44158,-11.506674 -5.67356,-7.279659 -8.19416,6.620201 -27.44058,8.985893 -36.07222,4.433838 -2.92029,-1.54007 -3.86521,-2.451284 -4.75061,-4.582666 -0.60784,-1.463255 0.82014,-5.096404 0.84901,-6.0766 -0.25962,-5.657013 -12.14862,-3.346267 -15.98969,-1.931697 -8.22791,3.443694 -11.45094,1.380513 -23.77736,-1.347721 -7.29191,-1.613933 -13.12091,-2.375084 -18.51773,-2.261361 z m 96.388952,40.599589 c -1.77969,-0.04486 -3.80286,0.366456 -5.86683,1.384412 -4.72158,2.328702 -7.87145,5.74572 -5.48261,8.820133 1.70355,2.192469 4.66751,3.419906 7.70074,3.451136 3.12983,0.03224 5.80983,-1.439004 8.46559,-3.972911 4.508,-4.30116 0.52217,-9.548193 -4.81689,-9.68277 z M 123.66997,89.49738 c -1.41387,0.07236 -2.31155,1.025799 -2.18695,2.613794 0.12831,1.63535 2.84136,2.853644 4.53208,3.45992 2.12695,0.762703 5.74383,3.277207 6.93054,-0.827259 0.82515,-3.353713 -6.61053,-5.306053 -9.27567,-5.246455 z"
       sodipodi:nodetypes="sscssssssssscssssssssssssssssssssssssssssssssssss" /><path
       style="fill:#399fab;fill-opacity:1;stroke:#000000;stroke-width:0.785369;stroke-dasharray:none;stroke-opacity:1"
       d="m 158.55676,32.794944 c 0,0 5.99525,-1.406319 12.01615,-5.939059 6.0209,-4.532737 17.21848,-10.232819 18.44666,0.267311 0.84514,7.225394 -13.34984,9.570721 -20.51948,9.565816 -7.16964,-0.0049 -9.94333,-3.894068 -9.94333,-3.894068 z"
       id="path2"
       sodipodi:nodetypes="csssc" /><path
       style="fill:#ffffff;fill-opacity:1;stroke:none;stroke-width:0.384073"
       d="m 126.89744,41.27013 c 0,0 8.0505,0.32143 10.12248,0.216598 3.18017,-0.160907 6.67432,0.482162 5.41846,-2.733716 -1.25585,-3.215873 -13.21071,1.761551 -15.54094,2.517118 z"
       id="path4"
       sodipodi:nodetypes="cssc" /><path
       style="fill:#ffffff;fill-opacity:1;stroke:none;stroke-width:0.384073"
       d="m 150.01758,78.724534 c 0,0 7.95559,0.599521 9.64519,-0.214727 1.6896,-0.814247 4.53283,-2.233433 5.95202,0.609803 1.41918,2.843224 -9.48428,3.3949 -15.59721,-0.395076 z"
       id="path5" /><path
       style="fill:#ffffff;fill-opacity:1;stroke:none;stroke-width:0.384073"
       d="m 174.5844,27.743776 c 0,0 4.21886,-3.037399 6.28111,-3.688311 2.06225,-0.650912 2.57524,-1.314528 3.82081,-0.102223 1.24557,1.212304 -3.74156,3.468727 -10.10192,3.790534 z"
       id="path6" /><path
       style="fill:#ffffff;fill-opacity:1;stroke:none;stroke-width:0.384073"
       d="m 183.48598,75.846925 c 0,0 5.78868,0.982441 6.17402,-0.403482 0.38536,-1.385917 -4.09907,-1.796684 -6.17402,0.403482 z"
       id="path7" /><path
       style="fill:#ffffff;fill-opacity:1;stroke-width:0.912;stroke-linecap:round;stroke-linejoin:round"
       d="m 62.091131,77.696581 c 0,0 7.268485,-1.460021 13.709447,1.027063 6.440965,2.487083 7.246273,-3.183961 3.589819,-4.177891 -3.656456,-0.993931 -12.899623,-1.297758 -17.299266,3.150828 z"
       id="path8" /><path
       style="fill:#ffffff;fill-opacity:1;stroke-width:0.912;stroke-linecap:round;stroke-linejoin:round"
       d="m 49.258788,125.98882 c 0,0 4.262779,-8.05191 9.236022,-12.31469 4.973243,-4.26278 6.867814,-5.92053 8.28874,-4.49961 1.420926,1.42093 -12.077877,9.70967 -17.524762,16.8143 z"
       id="path9" /></g></svg>
