<?xml version="1.0" encoding="UTF-8" standalone="no"?>
<!-- Created with Inkscape (http://www.inkscape.org/) -->

<svg
   width="210mm"
   height="210mm"
   viewBox="0 0 210 210"
   version="1.1"
   id="svg1"
   xml:space="preserve"
   inkscape:version="1.4.4 (dcaf3e7d9e, 2026-05-05)"
   sodipodi:docname="familia2.svg"
   xmlns:inkscape="http://www.inkscape.org/namespaces/inkscape"
   xmlns:sodipodi="http://sodipodi.sourceforge.net/DTD/sodipodi-0.dtd"
   xmlns:xlink="http://www.w3.org/1999/xlink"
   xmlns="http://www.w3.org/2000/svg"
   xmlns:svg="http://www.w3.org/2000/svg"><sodipodi:namedview
     id="namedview1"
     pagecolor="#ffffff"
     bordercolor="#000000"
     borderopacity="0.25"
     inkscape:showpageshadow="2"
     inkscape:pageopacity="0.0"
     inkscape:pagecheckerboard="0"
     inkscape:deskcolor="#d1d1d1"
     inkscape:document-units="mm"
     inkscape:zoom="0.5"
     inkscape:cx="592"
     inkscape:cy="287"
     inkscape:window-width="1534"
     inkscape:window-height="831"
     inkscape:window-x="0"
     inkscape:window-y="0"
     inkscape:window-maximized="1"
     inkscape:current-layer="svg1"
     showguides="true" /><defs
     id="defs1"><linearGradient
       id="linearGradient84"
       inkscape:collect="always"><stop
         style="stop-color:#f14747;stop-opacity:0.34375;"
         offset="0"
         id="stop84" /><stop
         style="stop-color:#f2c6c6;stop-opacity:0;"
         offset="1"
         id="stop85" /></linearGradient><linearGradient
       id="linearGradient82"
       inkscape:collect="always"><stop
         style="stop-color:#f0d55d;stop-opacity:1;"
         offset="0"
         id="stop82" /><stop
         style="stop-color:#c1a324;stop-opacity:1;"
         offset="1"
         id="stop83" /></linearGradient><linearGradient
       id="linearGradient80"
       inkscape:collect="always"><stop
         style="stop-color:#b89856;stop-opacity:1;"
         offset="0"
         id="stop80" /><stop
         style="stop-color:#9d7f42;stop-opacity:1;"
         offset="1"
         id="stop81" /></linearGradient><linearGradient
       id="linearGradient77"
       inkscape:collect="always"><stop
         style="stop-color:#d3b67a;stop-opacity:1;"
         offset="0"
         id="stop77" /><stop
         style="stop-color:#c09d56;stop-opacity:1;"
         offset="1"
         id="stop78" /></linearGradient><linearGradient
       id="linearGradient75"
       inkscape:collect="always"><stop
         style="stop-color:#d3b67a;stop-opacity:1;"
         offset="0"
         id="stop75" /><stop
         style="stop-color:#be9f5e;stop-opacity:1;"
         offset="1"
         id="stop76" /></linearGradient><linearGradient
       id="linearGradient73"
       inkscape:collect="always"><stop
         style="stop-color:#b89856;stop-opacity:1;"
         offset="0"
         id="stop73" /><stop
         style="stop-color:#9d7f42;stop-opacity:1;"
         offset="1"
         id="stop74" /></linearGradient><linearGradient
       id="linearGradient71"
       inkscape:collect="always"><stop
         style="stop-color:#b89856;stop-opacity:1;"
         offset="0"
         id="stop71" /><stop
         style="stop-color:#997c40;stop-opacity:1;"
         offset="1"
         id="stop72" /></linearGradient><linearGradient
       id="linearGradient69"
       inkscape:collect="always"><stop
         style="stop-color:#d3b67a;stop-opacity:1;"
         offset="0"
         id="stop69" /><stop
         style="stop-color:#c8a357;stop-opacity:1;"
         offset="1"
         id="stop70" /></linearGradient><linearGradient
       id="linearGradient67"
       inkscape:collect="always"><stop
         style="stop-color:#d3b67a;stop-opacity:1;"
         offset="0"
         id="stop67" /><stop
         style="stop-color:#b89955;stop-opacity:1;"
         offset="1"
         id="stop68" /></linearGradient><linearGradient
       id="linearGradient65"
       inkscape:collect="always"><stop
         style="stop-color:#a07ad3;stop-opacity:1;"
         offset="0"
         id="stop65" /><stop
         style="stop-color:#8453c6;stop-opacity:1;"
         offset="1"
         id="stop66" /></linearGradient><linearGradient
       id="linearGradient63"
       inkscape:collect="always"><stop
         style="stop-color:#d38e7a;stop-opacity:1;"
         offset="0"
         id="stop63" /><stop
         style="stop-color:#c56b50;stop-opacity:1;"
         offset="1"
         id="stop64" /></linearGradient><linearGradient
       id="linearGradient60"
       inkscape:collect="always"><stop
         style="stop-color:#d3b67a;stop-opacity:1;"
         offset="0"
         id="stop60" /><stop
         style="stop-color:#ba9a5a;stop-opacity:1;"
         offset="1"
         id="stop61" /></linearGradient><linearGradient
       id="linearGradient55"
       inkscape:collect="always"><stop
         style="stop-color:#b89856;stop-opacity:1;"
         offset="0"
         id="stop55" /><stop
         style="stop-color:#94793e;stop-opacity:1;"
         offset="1"
         id="stop56" /></linearGradient><linearGradient
       id="linearGradient53"
       inkscape:collect="always"><stop
         style="stop-color:#7ab0d3;stop-opacity:1;"
         offset="0"
         id="stop53" /><stop
         style="stop-color:#3980af;stop-opacity:1;"
         offset="1"
         id="stop54" /></linearGradient><linearGradient
       id="linearGradient51"
       inkscape:collect="always"><stop
         style="stop-color:#56b876;stop-opacity:1;"
         offset="0"
         id="stop51" /><stop
         style="stop-color:#33794a;stop-opacity:1;"
         offset="1"
         id="stop52" /></linearGradient><linearGradient
       id="linearGradient49"
       inkscape:collect="always"><stop
         style="stop-color:#f0d55d;stop-opacity:1;"
         offset="0"
         id="stop49" /><stop
         style="stop-color:#d8bb37;stop-opacity:1;"
         offset="1"
         id="stop50" /></linearGradient><linearGradient
       id="linearGradient47"
       inkscape:collect="always"><stop
         style="stop-color:#d4b779;stop-opacity:1;"
         offset="0"
         id="stop47" /><stop
         style="stop-color:#ba974f;stop-opacity:1;"
         offset="1"
         id="stop48" /></linearGradient><linearGradient
       id="linearGradient45"
       inkscape:collect="always"><stop
         style="stop-color:#d3b67a;stop-opacity:1;"
         offset="0"
         id="stop45" /><stop
         style="stop-color:#caa75f;stop-opacity:1;"
         offset="1"
         id="stop46" /></linearGradient><linearGradient
       id="linearGradient43"
       inkscape:collect="always"><stop
         style="stop-color:#b89856;stop-opacity:1;"
         offset="0"
         id="stop43" /><stop
         style="stop-color:#9b7e41;stop-opacity:1;"
         offset="1"
         id="stop44" /></linearGradient><linearGradient
       id="linearGradient39"
       inkscape:collect="always"><stop
         style="stop-color:#b89856;stop-opacity:1;"
         offset="0"
         id="stop39" /><stop
         style="stop-color:#a28344;stop-opacity:1;"
         offset="1"
         id="stop40" /></linearGradient><linearGradient
       inkscape:collect="always"
       xlink:href="#linearGradient39"
       id="linearGradient40"
       x1="126.92043"
       y1="51.723057"
       x2="133.6842"
       y2="71.218674"
       gradientUnits="userSpaceOnUse" /><linearGradient
       inkscape:collect="always"
       xlink:href="#linearGradient43"
       id="linearGradient44"
       x1="136.86717"
       y1="82.359024"
       x2="135.2757"
       y2="75.197365"
       gradientUnits="userSpaceOnUse" /><linearGradient
       inkscape:collect="always"
       xlink:href="#linearGradient45"
       id="linearGradient46"
       x1="57.691101"
       y1="66.444237"
       x2="50.927319"
       y2="77.186722"
       gradientUnits="userSpaceOnUse" /><linearGradient
       inkscape:collect="always"
       xlink:href="#linearGradient47"
       id="linearGradient48"
       x1="58.884712"
       y1="91.510025"
       x2="59.282581"
       y2="85.93985"
       gradientUnits="userSpaceOnUse" /><linearGradient
       inkscape:collect="always"
       xlink:href="#linearGradient49"
       id="linearGradient50"
       x1="48.142231"
       y1="54.508148"
       x2="54.906013"
       y2="87.133461"
       gradientUnits="userSpaceOnUse" /><linearGradient
       inkscape:collect="always"
       xlink:href="#linearGradient51"
       id="linearGradient52"
       x1="108.61842"
       y1="105.0376"
       x2="104.63972"
       y2="171.08395"
       gradientUnits="userSpaceOnUse" /><linearGradient
       inkscape:collect="always"
       xlink:href="#linearGradient53"
       id="linearGradient54"
       x1="44.561405"
       y1="120.55451"
       x2="62.465538"
       y2="188.59023"
       gradientUnits="userSpaceOnUse" /><linearGradient
       inkscape:collect="always"
       xlink:href="#linearGradient55"
       id="linearGradient56"
       x1="61.6698"
       y1="157.95425"
       x2="64.057014"
       y2="173.0733"
       gradientUnits="userSpaceOnUse" /><linearGradient
       inkscape:collect="always"
       xlink:href="#linearGradient55"
       id="linearGradient59"
       x1="73.850792"
       y1="180.89926"
       x2="73.991463"
       y2="176.67923"
       gradientUnits="userSpaceOnUse" /><linearGradient
       inkscape:collect="always"
       xlink:href="#linearGradient60"
       id="linearGradient61"
       x1="123.78799"
       y1="135.18211"
       x2="128.14871"
       y2="148.40492"
       gradientUnits="userSpaceOnUse" /><linearGradient
       inkscape:collect="always"
       xlink:href="#linearGradient60"
       id="linearGradient62"
       x1="137.71414"
       y1="160.36172"
       x2="136.02612"
       y2="154.17232"
       gradientUnits="userSpaceOnUse" /><linearGradient
       inkscape:collect="always"
       xlink:href="#linearGradient63"
       id="linearGradient64"
       x1="123.50665"
       y1="181.1806"
       x2="129.97739"
       y2="208.18889"
       gradientUnits="userSpaceOnUse" /><linearGradient
       inkscape:collect="always"
       xlink:href="#linearGradient65"
       id="linearGradient66"
       x1="68.22406"
       y1="200.73347"
       x2="66.114044"
       y2="208.6109"
       gradientUnits="userSpaceOnUse" /><linearGradient
       inkscape:collect="always"
       xlink:href="#linearGradient67"
       id="linearGradient68"
       x1="109.29917"
       y1="202.28084"
       x2="111.26852"
       y2="192.57472"
       gradientUnits="userSpaceOnUse" /><linearGradient
       inkscape:collect="always"
       xlink:href="#linearGradient69"
       id="linearGradient70"
       x1="165.98845"
       y1="200.31148"
       x2="162.47174"
       y2="192.15273"
       gradientUnits="userSpaceOnUse" /><linearGradient
       inkscape:collect="always"
       xlink:href="#linearGradient71"
       id="linearGradient72"
       x1="101.98443"
       y1="205.9382"
       x2="97.905045"
       y2="199.3268"
       gradientUnits="userSpaceOnUse" /><linearGradient
       inkscape:collect="always"
       xlink:href="#linearGradient73"
       id="linearGradient74"
       x1="45.717155"
       y1="203.82819"
       x2="48.952522"
       y2="200.03014"
       gradientUnits="userSpaceOnUse" /><linearGradient
       inkscape:collect="always"
       xlink:href="#linearGradient77"
       id="linearGradient78"
       x1="95.935692"
       y1="149.95227"
       x2="93.403664"
       y2="137.57347"
       gradientUnits="userSpaceOnUse" /><linearGradient
       inkscape:collect="always"
       xlink:href="#linearGradient82"
       id="linearGradient83"
       x1="156.56367"
       y1="120.55262"
       x2="152.0623"
       y2="154.73499"
       gradientUnits="userSpaceOnUse" /><radialGradient
       inkscape:collect="always"
       xlink:href="#linearGradient84"
       id="radialGradient85"
       cx="-79.336845"
       cy="59.080631"
       fx="-79.336845"
       fy="59.080631"
       r="17.898852"
       gradientTransform="matrix(0.8248626,0.01631911,-0.01704265,0.86143459,121.10762,18.72471)"
       gradientUnits="userSpaceOnUse" /><radialGradient
       inkscape:collect="always"
       xlink:href="#linearGradient84"
       id="radialGradient85-6"
       cx="-79.336845"
       cy="59.080631"
       fx="-79.336845"
       fy="59.080631"
       r="17.898851"
       gradientTransform="matrix(0.70550418,0.01395772,-0.01457656,0.73678417,135.831,26.338483)"
       gradientUnits="userSpaceOnUse" /><radialGradient
       inkscape:collect="always"
       xlink:href="#linearGradient84"
       id="radialGradient85-6-9"
       cx="-79.336845"
       cy="59.080631"
       fx="-79.336845"
       fy="59.080631"
       r="17.898851"
       gradientTransform="matrix(0.64993215,-0.04161424,0.04708806,0.7354224,185.57247,9.2801925)"
       gradientUnits="userSpaceOnUse" /><radialGradient
       inkscape:collect="always"
       xlink:href="#linearGradient84"
       id="radialGradient85-6-3"
       cx="-79.336845"
       cy="59.080631"
       fx="-79.336845"
       fy="59.080631"
       r="17.898851"
       gradientTransform="matrix(0.59256286,0.01041563,-0.01224306,0.54980853,160.31592,25.358991)"
       gradientUnits="userSpaceOnUse" /><radialGradient
       inkscape:collect="always"
       xlink:href="#linearGradient84"
       id="radialGradient85-0"
       cx="-79.336845"
       cy="59.080631"
       fx="-79.336845"
       fy="59.080631"
       r="17.898851"
       gradientTransform="matrix(0.43542972,-0.01324819,0.01370112,0.45031629,177.84635,111.29494)"
       gradientUnits="userSpaceOnUse" /><radialGradient
       inkscape:collect="always"
       xlink:href="#linearGradient84"
       id="radialGradient85-0-1"
       cx="-79.336845"
       cy="59.080631"
       fx="-79.336845"
       fy="59.080631"
       r="17.898851"
       gradientTransform="matrix(0.43542972,-0.01324819,0.01370112,0.45031629,156.8209,112.35523)"
       gradientUnits="userSpaceOnUse" /><radialGradient
       inkscape:collect="always"
       xlink:href="#linearGradient84"
       id="radialGradient85-0-4"
       cx="-79.336845"
       cy="59.080631"
       fx="-79.336845"
       fy="59.080631"
       r="17.898851"
       gradientTransform="matrix(0.43542972,-0.01324819,0.01370112,0.45031629,95.966753,135.90317)"
       gradientUnits="userSpaceOnUse" /><radialGradient
       inkscape:collect="always"
       xlink:href="#linearGradient84"
       id="radialGradient85-0-4-9"
       cx="-79.336845"
       cy="59.080631"
       fx="-79.336845"
       fy="59.080631"
       r="17.898851"
       gradientTransform="matrix(0.43542972,-0.01324819,0.01370112,0.45031629,120.30841,135.37403)"
       gradientUnits="userSpaceOnUse" /><linearGradient
       inkscape:collect="always"
       xlink:href="#linearGradient75"
       id="linearGradient89"
       gradientUnits="userSpaceOnUse"
       gradientTransform="translate(-0.16647321,0.90980005)"
       x1="26.304949"
       y1="142.91887"
       x2="27.289625"
       y2="133.21275" /><linearGradient
       inkscape:collect="always"
       xlink:href="#linearGradient80"
       id="linearGradient91"
       gradientUnits="userSpaceOnUse"
       x1="186.526"
       y1="131.38408"
       x2="181.1806"
       y2="118.58327"
       gradientTransform="translate(0.17596746,-0.02170496)" /></defs><g
     inkscape:label="Layer 1"
     inkscape:groupmode="layer"
     id="layer1" /><path
     d="M 38.076795,14.261314 C 9.3252014,21.160987 1.4737019,53.138542 5.8819652,74.712154 15.447245,121.57463 66.820796,174.26364 104.1296,200.24153 131.79317,176.01454 144.433,168.27911 167.69131,136.30884 181.99883,113.56343 207.34266,86.25319 204.91304,53.26109 199.14318,3.1916687 156.95266,-2.4050648 129.98312,22.121699 120.25742,30.984896 109.5619,49.874312 106.88978,56.036258 101.67393,65.310097 93.446093,4.6770807 38.076795,14.261314 Z"
     fill="#e78165"
     id="path5-3-7"
     style="fill:#eb987f;fill-opacity:1;stroke-width:0.814582"
     sodipodi:nodetypes="cccccccc" /><g
     id="g91"><path
       style="fill:#2e264a;fill-opacity:1;stroke-width:0.912;stroke:#000000;stroke-opacity:1;stroke-dasharray:none"
       d="m 100.59406,181.54084 0.52393,28.68502 30.78073,-0.26196 2.09571,-15.71782 5.63222,15.71782 h 38.50866 l -6.81106,-26.45833 z"
       id="path30" /><path
       id="path3"
       style="fill:url(#linearGradient50);fill-opacity:1;stroke-width:0.912;stroke:#000000;stroke-opacity:1;stroke-dasharray:none"
       d="M 60.947184 21.155298 C 60.444219 21.160245 59.938624 21.189443 59.432031 21.245732 C 51.326541 22.146341 41.852711 25.536335 36.016406 35.655188 C 32.44135 41.853539 33.089373 57.494882 29.26178 62.223075 C 25.434187 66.951275 20.255803 77.983977 24.984005 84.063086 C 29.712207 90.14221 33.764933 93.519227 42.771033 90.367094 C 51.777136 87.214962 54.253782 82.937073 53.128023 77.758561 L 52.001994 72.580066 L 62.358984 80.910824 L 70.23964 86.990039 C 70.23964 86.990039 73.391327 90.592614 79.245292 90.142301 C 85.099258 89.692003 92.079148 86.314601 94.330676 81.811544 C 96.582198 77.308501 97.70507 72.998954 93.872823 64.681323 C 90.87412 58.172842 92.976071 51.624448 91.403723 43.310535 C 90.59892 39.055074 86.675763 23.497243 75.418136 26.424227 C 75.418136 26.424227 68.491662 21.08109 60.947184 21.155298 z " /><path
       style="fill:url(#linearGradient44);fill-opacity:1;stroke:#000000;stroke-width:0.912;stroke-dasharray:none;stroke-opacity:1"
       d="m 118.84969,73.092453 -1.32004,10.508055 c 0,0 7.99881,11.213557 19.06294,5.232935 11.06415,-5.980607 9.68025,-9.606503 9.68025,-9.606503 0,0 -4.29768,-8.036309 -4.29768,-13.119835 0,-5.083516 -23.12547,6.985348 -23.12547,6.985348 z"
       id="path8"
       sodipodi:nodetypes="ccscsc" /><path
       style="fill:url(#linearGradient48);fill-opacity:1;stroke-width:0.912;stroke:#000000;stroke-opacity:1;stroke-dasharray:none"
       d="m 44.137092,87.804268 c 0,0 8.278759,-1.910488 8.278759,-10.189242 0,-8.278754 12.736551,-7.641939 12.736551,-7.641939 l 6.368273,10.189242 -1.910482,4.457792 c 0,0 0.636828,2.547318 3.820967,3.820977 3.184136,1.273644 12.099721,11.462886 3.184136,14.010192 -8.915585,2.54732 -25.473099,7.64194 -32.478204,-14.647022 z"
       id="path4" /><path
       style="fill:url(#linearGradient46);fill-opacity:1;stroke:#000000;stroke-width:0.912;stroke-dasharray:none;stroke-opacity:1"
       d="m 47.048742,52.091372 0.450304,5.628819 c 0,0 -3.24524,-3.746204 -6.30427,-3.602445 -3.078173,0.144659 -5.455204,3.387917 -2.087271,9.98393 2.174297,4.258306 6.062787,2.611532 6.062787,2.611532 0,0 4.00969,11.181239 7.612132,14.333372 3.602438,3.152133 7.550315,4.817659 14.980345,4.817659 7.430035,0 15.522458,-8.333903 17.098527,-13.962714 1.576065,-5.62881 1.209524,-11.57517 0.907143,-16.316439 -0.186294,-2.921047 -0.755952,-10.836719 -4.808699,-14.664311 -4.052743,-3.827592 -7.11785,-7.291907 -7.11785,-7.291907 0,0 -5.853966,18.462504 -26.793148,18.462504 z"
       id="path1"
       sodipodi:nodetypes="ccsscssssscc" /><path
       style="fill:url(#linearGradient78);fill-opacity:1;stroke-width:0.912;stroke-dasharray:none;stroke:#000000;stroke-opacity:1"
       d="m 89.831586,132.60853 9.66442,-3.48553 4.436124,16.47705 2.69337,14.89271 -1.58433,4.11926 -5.069864,4.753 -11.565618,-21.38847 z"
       id="path22" /><path
       style="fill:url(#linearGradient40);fill-opacity:1;stroke:#000000;stroke-width:0.912;stroke-dasharray:none;stroke-opacity:1"
       d="m 109.97887,23.644763 c 0,0 -2.99031,6.877703 -2.99031,15.549598 0,8.671885 -0.92084,13.850646 0,18.838936 1.07095,5.801454 7.67218,16.65065 15.14796,18.145805 7.47576,1.495141 16.13999,-2.67757 19.73979,-5.353537 3.06545,-2.278749 5.74052,-8.041465 7.16207,-12.043913 0.41265,-1.161842 5.43214,-0.890654 7.22633,-4.179988 1.79418,-3.289333 4.4801,-12.285938 -0.53415,-13.314088 -6.29613,-1.290995 -7.61806,3.839973 -7.61806,3.839973 0,0 0.44132,-8.624476 -0.45577,-10.119617 -0.8971,-1.495155 -5.98061,-10.16705 -5.08353,-13.75542 0.8971,-3.58837 -17.04474,7.475777 -32.59433,2.392251 z"
       id="path6"
       sodipodi:nodetypes="cssssssscssc" /><path
       style="fill:#1e180d;fill-opacity:1;stroke:#000000;stroke-width:0.912;stroke-dasharray:none;stroke-opacity:1"
       d="m 106.98857,43.679816 c 0,0 -4.059,-11.009539 -4.20218,-16.196997 -0.15683,-5.682024 1.80993,-8.024482 1.80993,-8.024482 l -2.09321,-4.186429 c 0,0 4.34523,-1.340845 12.55928,-3.289348 3.18024,-0.754403 9.92361,-1.792093 15.00711,-1.792093 5.08353,0 16.09207,6.277559 16.09207,6.277559 0,0 6.8777,-0.299036 8.37286,3.887393 1.49516,4.186429 2.80635,8.638125 2.69127,13.75542 -0.14961,6.653073 -2.39223,7.102128 -2.39223,7.102128 0,0 -2.00222,-1.057279 -3.88741,1.569753 -1.58509,2.20883 -2.46705,4.067353 -2.46705,4.067353 0,0 -0.82228,-7.655723 -2.61646,-10.34699 -1.76325,-2.644872 -3.00816,-8.917411 -3.30718,-11.309663 -0.29904,-2.392251 -2.97248,0.245518 -10.1492,1.142614 -7.17674,0.897096 -16.23626,-0.975146 -20.47469,-1.301044 -4.51183,-0.346921 -3.44775,14.159358 -4.94291,18.644826 z"
       id="path7"
       sodipodi:nodetypes="csccsscsscscssssc" /><path
       style="fill:url(#linearGradient52);fill-opacity:1;stroke:#000000;stroke-width:0.912;stroke-dasharray:none;stroke-opacity:1"
       d="m 102.50311,86.740229 c 0,0 5.08352,-2.990311 9.86801,-4.186429 4.78449,-1.196119 5.68158,-1.495156 5.68158,-1.495156 0,0 2.69128,11.064132 16.14764,7.475762 13.45639,-3.588369 11.5876,-11.213745 11.5876,-11.213745 0,0 21.65623,4.264696 26.74184,7.819482 2.31219,1.616194 6.91425,7.350269 10.76126,14.800784 2.82831,5.477583 8.26949,14.171273 8.26949,14.171273 l -10.89251,5.22423 -13.24364,5.55424 3.05089,18.82252 5.45258,49.49199 c 0,0 -26.97645,3.77404 -40.05663,3.36341 -13.08018,-0.41063 -37.029147,-3.58449 -37.029147,-3.58449 l 1.567817,-54.51157 c 0,0 -0.981799,-16.01291 -0.0847,-22.59157 0.89709,-6.57868 -0.812387,7.34101 -0.812387,7.34101 l -8.671887,3.88739 -11.064135,-12.55928 5.382548,-14.951527 z"
       id="path9"
       sodipodi:nodetypes="cscscssccccczccsccccc" /><path
       id="path5"
       style="fill:url(#linearGradient54);fill-opacity:1;stroke-width:0.912;stroke:#000000;stroke-opacity:1;stroke-dasharray:none"
       d="M 44.136841 87.80446 C 44.136841 87.80446 32.037163 92.899056 26.942542 97.356848 C 21.847921 101.81464 17.390153 130.47162 17.390153 130.47162 L 39.042578 132.3821 C 39.042578 132.3821 38.118679 142.47086 37.14502 149.26221 C 36.17136 156.05356 26.430558 174.24151 24.016105 191.07723 C 23.302363 196.05407 21.893927 202.9079 20.263879 210.09467 L 95.129077 210.09467 L 93.131783 183.8234 L 87.441174 144.48214 L 88.078345 131.10828 L 100.17786 126.65067 C 100.17786 126.65067 96.357081 106.90891 93.809778 100.54063 C 91.262461 94.172357 75.530273 89.526318 75.530273 89.526318 C 75.530273 89.526318 75.978515 102.45129 61.968311 101.81446 C 47.95812 101.17763 44.136841 87.80446 44.136841 87.80446 z " /><path
       style="fill:url(#linearGradient59);fill-opacity:1;stroke-width:0.912;stroke-dasharray:none;stroke:#000000;stroke-opacity:1"
       d="m 66.265858,170.03935 c 0,0 0.324368,3.89247 -1.297485,7.46057 -1.621867,3.56809 0.648735,6.81181 0.648735,6.81181 0,0 2.594985,3.89247 9.082426,2.27062 6.48744,-1.62187 9.406793,-7.13619 9.406793,-7.13619 0,0 -3.89247,-3.56811 -3.89247,-6.48746 0,-2.91935 -13.947999,-2.91935 -13.947999,-2.91935 z"
       id="path15" /><path
       style="fill:#397fac;fill-opacity:1;stroke-width:0.912;stroke:#000000;stroke-opacity:1;stroke-dasharray:none"
       d="m 98.700517,130.73608 c 0,0 1.838513,0.002 2.696663,-1.28315 0.85815,-1.2856 -0.77536,-6.64924 -0.77536,-6.64924 0,0 0.041,-1.07224 -1.892917,-0.50293 -1.933916,0.56931 -20.428899,7.2643 -20.428899,7.2643 0,0 -0.885225,0.0703 -0.408715,1.07174 0.476528,1.00145 1.579115,4.86317 1.579115,4.86317 l 0.558239,0.78709 c 0,0 0.272297,0.57226 2.274305,0.14602 2.001991,-0.42625 16.397569,-5.697 16.397569,-5.697 z"
       id="path19-9" /><path
       style="fill:url(#linearGradient83);fill-opacity:1;stroke:#000000;stroke-width:0.912;stroke-dasharray:none;stroke-opacity:1"
       d="m 113.15196,126.69392 c 0,0 -0.0147,-9.63344 0.76936,-13.82651 1.59431,-8.52578 8.14675,-17.751016 18.89728,-18.31682 l 8.03583,-0.422928 c 0,0 12.43905,1.076154 16.66843,5.939948 4.22939,4.86379 8.48379,16.26708 9.90769,24.00715 2.51255,13.65769 4.22626,15.28535 5.07214,18.66886 0.84587,3.38351 2.00617,20.50909 -1.58881,26.6417 -3.59497,6.1326 -23.92685,-2.08931 -23.92685,-2.08931 l -21.56986,0.6344 c 0,0 -10.73926,-0.54514 -11.79661,-3.29424 -1.05734,-2.74909 -2.42293,-8.63837 -2.16035,-14.59136 0.28264,-6.40785 1.69175,-23.35089 1.69175,-23.35089 z"
       id="path11"
       sodipodi:nodetypes="csscssssccssc" /><path
       style="fill:url(#linearGradient62);fill-opacity:1;stroke-width:0.912;stroke:#000000;stroke-opacity:1;stroke-dasharray:none"
       d="m 128.37774,152.49316 c 0,0 1.48029,3.59498 0.84588,5.70966 -0.63441,2.1147 -0.42294,2.1147 -0.42294,2.1147 0,0 0.84588,1.48028 2.96057,1.90323 2.11469,0.42292 5.92114,0 9.51612,-1.48029 3.59497,-1.48028 3.59497,-1.90322 3.59497,-1.90322 0,0 -2.11469,-5.92114 -2.11469,-8.88171 0,-2.96058 -6.76702,-2.32617 -6.76702,-2.32617 z"
       id="path12" /><path
       style="fill:url(#linearGradient61);fill-opacity:1;stroke:#000000;stroke-width:0.912;stroke-dasharray:none;stroke-opacity:1"
       d="m 116.95841,119.71543 -0.21147,18.60929 c 0,0 -0.63441,5.07526 4.01791,9.09317 4.65232,4.01793 9.09318,6.97849 13.95697,6.55555 4.86379,-0.42294 11.20787,-3.59498 13.53403,-6.97849 2.32616,-3.3835 4.22938,-6.55553 4.22938,-6.55553 0,0 3.17204,-0.21308 5.28673,-1.48189 2.1147,-1.26883 3.83127,-3.77775 4.65232,-7.39983 0.75992,-3.3524 -1.69175,-6.34406 -4.44085,-5.92114 -2.7491,0.42295 -4.65232,3.80646 -4.65232,3.80646 l -0.42294,-7.18995 c 0,0 -4.22938,-2.96058 -6.55554,-7.61289 -2.32616,-4.65234 -2.96057,-9.09319 -2.96057,-9.09319 0,0 -4.90454,10.57936 -16.07166,12.89963 -7.50314,1.55898 -10.36199,1.26881 -10.36199,1.26881 z"
       id="path10"
       sodipodi:nodetypes="ccssscsssccscsc" /><path
       style="fill:url(#linearGradient56);fill-opacity:1;stroke:#000000;stroke-width:0.912;stroke-dasharray:none;stroke-opacity:1"
       d="m 54.363526,155.24226 c 0,0 -2.114697,-4.65232 -4.652322,-4.01791 -2.53764,0.6344 -4.386789,1.66552 -3.963847,5.68343 0.422942,4.01791 3.357275,5.23266 5.260501,6.71294 1.903226,1.48029 3.56714,0.50324 3.56714,0.50324 0,0 2.960567,5.70968 5.286721,7.40144 2.326169,1.69175 8.670246,5.07525 12.688155,5.07525 4.017917,0 9.727586,-1.48029 15.225785,-6.13261 5.4982,-4.65232 2.749099,-17.55195 2.749099,-17.55195 l 0.422938,-12.05374 -7.189953,-10.78493 -18.609288,0.21147 c 0,0 -13.534025,1.90323 -10.784929,24.95337 z"
       id="path13"
       sodipodi:nodetypes="cssscsssccccc" /><path
       style="fill:#1e180d;fill-opacity:1;stroke:#000000;stroke-width:0.912;stroke-dasharray:none;stroke-opacity:1"
       d="m 46.539165,152.49316 c 0,0 1.480284,-1.26881 3.806438,-1.05734 2.326169,0.21146 4.706399,5.2621 4.706399,5.2621 l 0.580337,-10.12589 c 0,0 3.172039,-0.84589 4.863794,0.6344 1.691755,1.48028 0.422942,-2.1147 0.422942,-2.1147 l -2.537639,-6.97848 c 0,0 6.978491,-0.84587 9.093173,2.1147 2.114698,2.96057 2.960568,1.26881 2.960568,1.26881 0,0 0.845885,-6.34408 -0.84587,-7.18995 -1.691755,-0.84588 0.886875,-0.31247 0.886875,-0.31247 0,0 6.514547,1.36982 7.360426,5.17625 0.845874,3.80646 2.749099,0.21148 2.960566,-2.53762 0.211469,-2.7491 0.211469,-2.96057 0.211469,-2.96057 0,0 5.921137,4.01791 8.2473,8.45878 2.326161,4.44085 3.068715,4.59824 3.068715,4.59824 0,0 2.006545,-4.17532 1.372138,-8.19323 -0.634408,-4.01792 -5.498199,-9.09317 -5.498199,-9.09317 0,0 1.833537,2.09146 3.806447,2.7491 l 5.07526,1.69175 c 0,0 0.908865,-2.50642 -2.32616,-6.55555 -3.235024,-4.04912 -5.286731,-4.44085 -9.939055,-5.70966 -4.65232,-1.26881 -9.093173,-1.05734 -9.093173,-1.05734 0,0 1.268813,-0.21147 1.480282,-1.4803 0.211472,-1.26881 0,-2.32615 0,-2.32615 0,0 -9.304646,1.48028 -13.956969,3.17203 -4.652322,1.69176 -9.727587,5.70967 -9.727587,5.70967 0,0 -7.824347,6.1326 -8.458761,8.8817 -0.634413,2.74911 -3.38351,8.45878 1.480284,17.97489 z"
       id="path14"
       sodipodi:nodetypes="csccsccscscsscscscsczscscscsc" /><path
       style="fill:#397fac;fill-opacity:1;stroke-width:0.912;stroke-dasharray:none;stroke:#000000;stroke-opacity:1"
       d="m 44.678144,87.771956 c 0,0 1.425898,5.862026 6.495757,9.822854 5.069861,3.96083 12.833085,4.11926 12.833085,4.11926 0,0 -3.485531,8.55539 -8.555389,7.44636 -5.069862,-1.10904 -8.238525,-9.03069 -8.238525,-9.03069 0,0 -6.337323,0.31687 -7.763221,-3.168662 -1.425901,-3.485531 5.228293,-9.189122 5.228293,-9.189122 z"
       id="path20"
       sodipodi:nodetypes="cscscsc" /><path
       style="fill:#397fac;fill-opacity:1;stroke-width:0.912;stroke:#000000;stroke-opacity:1;stroke-dasharray:none"
       d="m 64.006986,101.55564 c 0,0 7.446356,-0.31687 9.664419,-5.069862 2.218066,-4.752994 1.584333,-6.812624 1.584333,-6.812624 0,0 6.337324,2.693363 6.178891,5.703591 -0.158432,3.01023 -6.020458,4.752995 -6.020458,4.752995 0,0 1.267465,5.86202 -2.059631,7.28792 -3.327095,1.4259 -9.347554,-5.86202 -9.347554,-5.86202 z"
       id="path21" /><ellipse
       style="fill:url(#radialGradient85);fill-opacity:1;stroke:none;stroke-width:0.41781;stroke-linecap:round;stroke-linejoin:round;stroke-dasharray:none;stroke-opacity:1"
       id="path83"
       cx="54.658726"
       cy="68.324104"
       rx="7.9910212"
       ry="8.2487974" /><ellipse
       style="fill:url(#radialGradient85-0);fill-opacity:1;stroke:none;stroke-width:0.41781;stroke-linecap:round;stroke-linejoin:round;stroke-dasharray:none;stroke-opacity:1"
       id="path83-9"
       cx="144.1102"
       cy="138.95097"
       rx="7.9910212"
       ry="8.2487974" /><ellipse
       style="fill:url(#radialGradient85-0-1);fill-opacity:1;stroke:none;stroke-width:0.41781;stroke-linecap:round;stroke-linejoin:round;stroke-dasharray:none;stroke-opacity:1"
       id="path83-9-8"
       cx="123.08476"
       cy="140.01131"
       rx="7.9910212"
       ry="8.2487974" /><ellipse
       style="fill:url(#radialGradient85-6);fill-opacity:1;stroke:none;stroke-width:0.357352;stroke-linecap:round;stroke-linejoin:round;stroke-dasharray:none;stroke-opacity:1"
       id="path83-6"
       cx="78.99733"
       cy="68.760796"
       rx="6.8347125"
       ry="7.0551882" /><ellipse
       style="fill:url(#radialGradient85-6-9);fill-opacity:1;stroke:none;stroke-width:0.357352;stroke-linecap:round;stroke-linejoin:round;stroke-dasharray:none;stroke-opacity:1"
       id="path83-6-1"
       ry="7.0551882"
       rx="6.8347125"
       cy="56.030956"
       cx="136.79088" /><ellipse
       style="fill:url(#radialGradient85-6-3);fill-opacity:1;stroke:none;stroke-width:0.282911;stroke-linecap:round;stroke-linejoin:round;stroke-dasharray:none;stroke-opacity:1"
       id="path83-6-4"
       cx="112.58051"
       cy="57.015686"
       rx="5.740571"
       ry="5.2647748" /><ellipse
       style="fill:url(#radialGradient85-0-4);fill-opacity:1;stroke:none;stroke-width:0.41781;stroke-linecap:round;stroke-linejoin:round;stroke-dasharray:none;stroke-opacity:1"
       id="path83-9-9"
       cx="62.230602"
       cy="163.55917"
       rx="7.9910212"
       ry="8.2487974" /><ellipse
       style="fill:url(#radialGradient85-0-4-9);fill-opacity:1;stroke:none;stroke-width:0.41781;stroke-linecap:round;stroke-linejoin:round;stroke-dasharray:none;stroke-opacity:1"
       id="path83-9-9-3"
       cx="86.572258"
       cy="163.03001"
       rx="7.9910212"
       ry="8.2487974" /><path
       id="path16"
       style="fill:url(#linearGradient66);fill-opacity:1;stroke:#000000;stroke-width:0.912;stroke-dasharray:none;stroke-opacity:1"
       d="m 82.213374,177.25305 c 0,0 4.217658,4.21727 -5.189135,5.83913 -9.406807,1.62187 -12.634888,-4.16925 -12.634888,-4.16925 -0.0011,-0.0181 -0.07904,-0.58672 -5.625496,0.94671 -5.997727,1.65819 -13.852384,12.95373 -13.852384,12.95373 0,0 -0.289896,2.61604 2.953824,6.18412 3.24372,3.56811 5.803781,5.49321 5.803781,5.49321 l 3.243729,-2.27067 -1.059367,7.77059 h 36.757963 l 0.306958,-7.77059 9.406661,-6.81198 c 0,0 -9.73123,-15.24534 -12.001851,-16.86719 -2.270603,-1.62187 -8.109795,-1.29781 -8.109795,-1.29781 z"
       sodipodi:nodetypes="cscscsccccccsc" /><path
       id="path17"
       style="fill:url(#linearGradient64);fill-opacity:1;stroke-width:0.912;stroke:#000000;stroke-opacity:1;stroke-dasharray:none"
       d="m 144.86764,158.03273 c 0,0 -4.67094,4.23075 -9.86089,4.23075 -5.18994,0 -5.72213,-3.10627 -5.72213,-3.10627 0,0 -0.99489,-0.68739 -5.5361,1.25884 -4.54124,1.94624 -11.35286,5.5146 -13.62346,8.10958 -2.27061,2.59497 -6.35362,18.00924 -6.35362,18.00924 0,0 0.91318,2.80644 6.42752,4.75268 5.51434,1.94624 6.94583,1.85105 6.94583,1.85105 l 1.64331,-7.16701 c 0,0 -0.1728,2.95798 0.47594,9.44542 0.31173,3.11731 0.16106,9.2188 -0.0796,14.58075 h 38.52502 l -3.52613,-17.62036 c 0,0 3.76427,-1.15514 7.59437,-2.46496 3.37611,-1.15456 6.42752,-4.67517 6.42752,-4.67517 l -4.71393,-12.01942 c 0,0 -2.55614,-8.04876 -5.1511,-11.61686 -2.595,-3.56809 -13.47257,-3.56826 -13.47257,-3.56826 z"
       sodipodi:nodetypes="cscsscsccscccsccsc" /><path
       d="m 73.970385,191.67637 c -2.33522,0.64327 -2.770329,3.6246 -2.359339,5.63595 0.89179,4.36908 5.039199,9.28138 8.517572,11.70335 2.579127,-2.25873 3.757565,-2.97992 5.925982,-5.96057 1.333917,-2.1206 2.430054,-4.57656 1.660849,-7.01112 -1.475306,-4.66807 -5.57993,-2.68932 -6.747632,1.03386 -0.188494,0.60188 -0.332736,1.24071 -0.581862,1.8152 -0.08429,0.19423 -0.106699,0.15074 -0.292265,0.21947 -0.145331,-0.0348 -0.226983,-0.0154 -0.266998,-0.19461 -0.667111,-2.97137 -1.995948,-7.68618 -5.856307,-7.24153 z"
       fill="#e78165"
       id="path5-3"
       style="fill:#3e38df;fill-opacity:1;stroke-width:0.0759453" /><path
       id="path18-1-5"
       style="fill:url(#linearGradient89);fill-opacity:1;stroke:#000000;stroke-width:0.912;stroke-linecap:round;stroke-linejoin:round;stroke-dasharray:none;stroke-opacity:1"
       d="m 17.995717,130.95906 c 0,0 -3.36356,19.05915 -3.13934,22.87095 0.22422,3.81179 -0.44829,4.93284 2.91506,8.52041 3.176,3.38774 32.47446,18.4404 35.728571,20.10678 h 5.17e-4 l 0.27957,-0.19327 -0.05374,0.0507 c 0.152282,0.83922 0.769646,3.98778 1.825212,6.17533 1.099389,2.27834 4.688967,4.60965 5.202783,5.795 0.513814,1.18535 1.733669,1.77768 1.990576,3.2923 0.132055,0.77854 1.412607,2.89776 2.183329,2.37092 1.156078,-0.79023 0.129192,-3.95067 0.129192,-3.95067 l -1.189592,-3.57652 c 1.429081,1.03739 2.379306,2.1306 3.340365,3.5264 0.748683,1.11619 1.318778,2.61486 2.333191,3.77909 0.633452,0.72702 1.740422,0.0197 1.510502,-1.31568 -0.324362,-1.88384 -2.567802,-5.18366 -2.567802,-5.18366 l -1.538924,-2.38435 c 0,0 2.04372,2.22579 2.564701,2.87838 1.603781,2.00891 3.376471,4.37632 4.012675,4.78162 1.278081,0.81419 2.002125,-0.86057 1.156519,-2.06241 -1.752606,-2.49092 -5.083928,-7.00887 -5.083928,-7.00887 0,0 3.739055,3.29005 4.819344,3.96513 2.109802,1.31844 2.848203,-0.30284 2.352311,-0.92863 -0.49589,-0.62577 -5.486051,-5.46945 -6.507613,-6.67763 -1.013226,-1.1983 -10.737846,-8.91728 -10.737846,-8.91728 -8.409713,-8.48043 -25.277479,-20.42003 -27.847909,-22.595 -0.85585,-0.72418 4.03593,-21.52531 4.03593,-21.52531 z"
       sodipodi:nodetypes="cssccccsssscccssccssscssscscc" /><path
       style="fill:#397fac;fill-opacity:1;stroke-width:0.912;stroke-dasharray:none;stroke:#000000;stroke-opacity:1"
       d="m 20.513709,123.73628 c 0,0 -1.659099,-0.79217 -2.986377,0 -1.327278,0.79216 -2.156826,6.33732 -2.156826,6.33732 0,0 -0.49773,0.9506 1.493188,1.26747 1.990916,0.31686 21.568266,2.21806 21.568266,2.21806 0,0 0.82955,0.31687 0.82955,-0.79216 0,-1.10904 0.663638,-5.06987 0.663638,-5.06987 l -0.165909,-0.95059 c 0,0 0,-0.63374 -1.990917,-1.10904 -1.990917,-0.4753 -17.254613,-1.90119 -17.254613,-1.90119 z"
       id="path19" /><path
       sodipodi:type="star"
       style="fill:#ffffff;fill-opacity:1;stroke-width:0.264583"
       id="path24"
       inkscape:flatsided="false"
       sodipodi:sides="5"
       sodipodi:cx="12.991517"
       sodipodi:cy="173.32585"
       sodipodi:r1="10.757131"
       sodipodi:r2="5.3785658"
       sodipodi:arg1="0.80622848"
       sodipodi:arg2="1.434547"
       inkscape:rounded="0"
       inkscape:randomized="0"
       d="m 20.437874,181.08907 -6.715796,-2.4345 -5.8127739,4.15216 0.2400553,-7.13941 -5.7451794,-4.24519 6.8641583,-1.97789 2.2620577,-6.77583 4.002228,5.917 7.143208,0.0575 -4.390646,5.6348 z"
       inkscape:transform-center-x="-0.046640969"
       inkscape:transform-center-y="0.011775568"
       transform="matrix(1.15631,0,0,1.2045485,119.71335,-20.063425)" /><path
       id="path25-3"
       style="fill:url(#linearGradient91);fill-opacity:1;stroke:#000000;stroke-width:0.912;stroke-dasharray:none;stroke-opacity:1"
       d="m 188.91198,115.51285 -20.45094,8.97206 9.57357,15.42851 c 0,0 -17.22955,4.75361 -25.57622,9.99526 -3.9427,2.47598 -6.17846,4.53628 -7.19321,5.53444 -3.31365,2.65747 -8.93791,7.58172 -9.75355,8.54635 -1.16323,1.37574 -6.84523,6.89111 -7.40989,7.60367 -0.56467,0.71258 0.27599,2.55859 2.67839,1.0573 1.23012,-0.76871 5.48804,-4.51497 5.48804,-4.51497 0,0 -3.79365,5.14453 -5.78931,7.98091 -0.96289,1.36852 -0.13862,3.27581 1.31671,2.3487 0.72444,-0.46151 2.74302,-3.15763 4.56923,-5.44515 0.59323,-0.7431 2.92076,-3.27732 2.92076,-3.27732 l -1.75235,2.71508 c 0,0 -2.55451,3.75738 -2.92386,5.90248 -0.2618,1.52055 0.9985,2.32595 1.7198,1.4981 1.1551,-1.32569 1.80417,-3.0321 2.65668,-4.30309 1.09435,-1.58938 2.17662,-2.83452 3.8039,-4.01578 l -1.35495,4.07262 c 0,0 -1.16913,3.5986 0.14728,4.49843 0.87761,0.59991 2.33578,-1.81305 2.48615,-2.69957 0.29254,-1.72468 1.68146,-2.39887 2.26653,-3.74861 0.58508,-1.34975 4.67284,-4.00476 5.9247,-6.59908 1.14368,-2.37015 1.95159,-6.15134 2.16538,-7.29495 0.41358,-0.76507 7.5711,-3.57238 21.97619,-5.63025 14.4051,-2.05788 23.85506,-4.15458 25.4461,-6.28707 1.59104,-2.13249 0.0496,-6.96755 -3.82147,-14.69884 -3.05532,-6.10207 -9.10589,-17.62444 -9.11366,-17.63923 z"
       sodipodi:nodetypes="cccscssscsssccsscccsssscsssc" /><path
       style="fill:url(#linearGradient74);fill-opacity:1;stroke-width:0.912;stroke:#000000;stroke-opacity:1;stroke-dasharray:none"
       d="m 45.357142,195.17316 c 0,0 1.283671,2.22322 3.829092,4.84292 2.798249,2.8799 3.010881,3.14187 3.010881,3.14187 l -5.809127,6.79064 H 33.674243 Z"
       id="path26"
       sodipodi:nodetypes="cscccc" /><path
       style="fill:url(#linearGradient72);fill-opacity:1;stroke-width:0.912;stroke:#000000;stroke-opacity:1;stroke-dasharray:none"
       d="m 93.119587,201.70184 8.246753,-5.49784 6.64265,13.92491 -11.453257,-0.18032 z"
       id="path27"
       sodipodi:nodetypes="ccccc" /><path
       style="fill:url(#linearGradient68);fill-opacity:1;stroke-width:0.912;stroke:#000000;stroke-opacity:1;stroke-dasharray:none"
       d="m 106.66856,189.69233 c 0,0 3.6981,1.45611 6.44702,2.48695 l 2.8799,0.76889 -2.14334,17.26239 -10.01415,-0.36065 z"
       id="path28"
       sodipodi:nodetypes="cscccc" /><path
       style="fill:url(#linearGradient70);fill-opacity:1;stroke:#000000;stroke-width:0.912;stroke-dasharray:none;stroke-opacity:1"
       d="m 156.18465,192.10406 c 0,0 1.87642,-0.74294 5.72252,-2.51039 2.51725,-1.15675 4.40235,-2.66726 4.40235,-2.66726 l 8.50871,23.12084 -12.20681,0.0817 z"
       id="path29"
       sodipodi:nodetypes="cscccc" /><path
       id="path31"
       style="fill:#000000;fill-opacity:1;stroke:none;stroke-width:0.914909;stroke-dasharray:none;stroke-opacity:1"
       d="m 60.4283,56.499093 c -0.186618,-6.1e-5 -0.383353,0.0078 -0.59071,0.02495 -2.137923,0.176605 -3.096175,2.905413 -3.096175,2.905413 0,0 0.176794,0.475392 1.288452,-0.40817 0.404136,-0.321214 0.76615,-0.915067 1.560504,-0.832678 -0.229044,0.6273 -0.650133,1.737664 -0.411226,3.049228 0.33605,1.154638 1.497805,1.923656 2.484059,1.92367 1.294128,2e-6 2.343227,-1.306383 2.343228,-2.917893 8e-5,-0.359912 0.02122,-0.96518 -0.107788,-1.623878 -0.218396,-0.85117 -0.671087,-2.119731 -3.470338,-2.120652 z"
       sodipodi:nodetypes="cscsccsccsc" /><path
       id="path31-9"
       style="fill:#000000;fill-opacity:1;stroke:none;stroke-width:0.914909;stroke-dasharray:none;stroke-opacity:1"
       d="m 114.39035,42.012647 c -0.18662,-6.1e-5 -0.38335,0.0078 -0.59071,0.02495 -2.13792,0.176605 -3.09617,2.905413 -3.09617,2.905413 0,0 0.17679,0.475392 1.28845,-0.40817 0.40414,-0.321214 0.76615,-0.915067 1.5605,-0.832678 -0.22904,0.6273 -0.65013,1.737664 -0.41122,3.049228 0.33605,1.154638 1.4978,1.923656 2.48406,1.92367 1.29412,2e-6 2.34322,-1.306383 2.34322,-2.917893 8e-5,-0.359912 0.0212,-0.96518 -0.10778,-1.623878 -0.2184,-0.85117 -0.67109,-2.119731 -3.47034,-2.120652 z"
       sodipodi:nodetypes="cscsccsccsc" /><path
       id="path31-9-8"
       style="fill:#000000;fill-opacity:1;stroke:none;stroke-width:0.914909;stroke-dasharray:none;stroke-opacity:1"
       d="m 133.7287,42.135093 c 0.18662,-6.1e-5 0.38335,0.0078 0.59071,0.02495 2.13792,0.176605 3.09617,2.905413 3.09617,2.905413 0,0 -0.17679,0.475392 -1.28845,-0.40817 -0.40414,-0.321214 -0.76615,-0.915067 -1.5605,-0.832678 0.22904,0.6273 0.65013,1.737664 0.41122,3.049228 -0.33605,1.154638 -1.4978,1.923656 -2.48406,1.92367 -1.29412,2e-6 -2.34322,-1.306383 -2.34322,-2.917893 -8e-5,-0.359912 -0.0212,-0.96518 0.10778,-1.623878 0.2184,-0.85117 0.67109,-2.119731 3.47034,-2.120652 z"
       sodipodi:nodetypes="cscsccsccsc" /><path
       id="path31-4"
       style="fill:#000000;fill-opacity:1;stroke:none;stroke-width:0.914909;stroke-dasharray:none;stroke-opacity:1"
       d="m 77.796725,54.889773 c 0.186617,-6.1e-5 0.383352,0.0078 0.59071,0.02495 2.137922,0.176606 3.096175,2.905414 3.096175,2.905414 0,0 -0.176794,0.475392 -1.288452,-0.40817 -0.404137,-0.321214 -0.76615,-0.915067 -1.560504,-0.832678 0.229044,0.6273 0.650132,1.737664 0.411226,3.049228 -0.33605,1.154638 -1.497806,1.923656 -2.484059,1.92367 -1.294128,2e-6 -2.343228,-1.306384 -2.343229,-2.917893 -7.9e-5,-0.359912 -0.02122,-0.96518 0.107789,-1.623878 0.218395,-0.85117 0.671087,-2.119731 3.470338,-2.120652 z"
       sodipodi:nodetypes="cscsccsccsc" /><path
       style="fill:none;fill-opacity:1;stroke:#000000;stroke-width:1.04879;stroke-linecap:round;stroke-dasharray:none;stroke-opacity:1"
       d="m 71.284687,63.156293 c 0,0 0.746149,2.987221 2.41955,4.346607 1.412668,1.147578 -2.596876,3.8898 -4.123716,2.683067"
       id="path32"
       sodipodi:nodetypes="csc" /><path
       style="fill:none;fill-opacity:1;stroke:#000000;stroke-width:1.04879;stroke-linecap:round;stroke-dasharray:none;stroke-opacity:1"
       d="m 121.42004,51.72356 c 0,0 -0.74615,2.987221 -2.41955,4.346607 -1.41267,1.147578 2.59688,3.8898 4.12372,2.683067"
       id="path32-7"
       sodipodi:nodetypes="csc" /><path
       style="fill:none;fill-opacity:1;stroke:#000000;stroke-width:1.04879;stroke-linecap:round;stroke-dasharray:none;stroke-opacity:1"
       d="m 64.081231,74.244277 c 0,0 1.377215,1.656833 3.682868,2.074771 2.496465,0.452526 4.483262,-0.847009 4.483262,-0.847009"
       id="path33"
       sodipodi:nodetypes="csc" /><path
       style="fill:none;fill-opacity:1;stroke:#000000;stroke-width:1.04879;stroke-linecap:round;stroke-dasharray:none;stroke-opacity:1"
       d="m 129.84319,62.099167 c 0,0 -1.37721,1.656833 -3.68287,2.074771 -2.49647,0.452526 -4.48327,-0.847009 -4.48327,-0.847009"
       id="path33-5"
       sodipodi:nodetypes="csc" /><path
       style="fill:#000000;fill-opacity:1;stroke:none;stroke-width:1.11285;stroke-linecap:round;stroke-dasharray:none;stroke-opacity:1"
       d="m 74.190494,49.165006 c 0,0 -0.861798,0.179963 -0.506619,1.34244 0.355173,1.162476 1.818328,0.632091 2.180094,0.534062 0.361763,-0.09803 2.025448,-0.3899 3.545218,-0.358083 1.467904,0.03074 3.339272,0.809144 4.088398,1.597051 0.74913,0.787911 1.300745,-0.339077 0.848998,-0.671944 -0.451744,-0.332873 -2.893732,-2.228764 -4.975795,-2.401064 -2.082065,-0.172297 -5.180288,-0.04246 -5.180288,-0.04246 z"
       id="path35"
       sodipodi:nodetypes="cssssssc" /><path
       style="fill:#000000;fill-opacity:1;stroke:none;stroke-width:1.11373;stroke-linecap:round;stroke-dasharray:none;stroke-opacity:1"
       d="m 61.603744,50.254466 c 0,0 0.879564,-0.05174 0.840769,1.164122 -0.0388,1.215867 -1.590966,1.086533 -1.966076,1.086535 -0.375107,2e-6 -2.05855,0.15355 -3.518249,0.582096 -1.409882,0.413924 -3.013782,1.655673 -3.531164,2.612845 -0.517385,0.957176 -1.345218,0.01295 -0.995982,-0.426836 0.349233,-0.439785 2.211819,-2.910339 4.177898,-3.621767 1.966076,-0.711427 4.992804,-1.396995 4.992804,-1.396995 z"
       id="path35-8"
       sodipodi:nodetypes="cssssssc" /><path
       id="path31-3"
       style="fill:#000000;fill-opacity:1;stroke:none;stroke-width:0.781146;stroke-dasharray:none;stroke-opacity:1"
       d="m 68.034508,152.38769 c -0.159333,-6e-5 -0.327305,0.006 -0.504346,0.0212 -1.825349,0.15077 -2.6435,2.48062 -2.6435,2.48062 0,0 0.150945,0.40588 1.100074,-0.34849 0.34505,-0.27425 0.654135,-0.78129 1.332352,-0.71094 -0.195557,0.53558 -0.555081,1.48361 -0.351103,2.60342 0.286918,0.98583 1.278819,1.64241 2.120879,1.64242 1.10492,0 2.000637,-1.11538 2.000638,-2.49129 6.8e-5,-0.30729 0.01811,-0.82406 -0.09202,-1.38646 -0.186467,-0.72672 -0.572972,-1.80981 -2.96296,-1.8106 z"
       sodipodi:nodetypes="cscsccsccsc" /><path
       id="path31-4-5"
       style="fill:#000000;fill-opacity:1;stroke:none;stroke-width:0.781146;stroke-dasharray:none;stroke-opacity:1"
       d="m 82.863596,151.01366 c 0.159332,-6e-5 0.327304,0.006 0.504345,0.0212 1.825349,0.15078 2.643501,2.48063 2.643501,2.48063 0,0 -0.150945,0.40588 -1.100075,-0.3485 -0.34505,-0.27424 -0.654135,-0.78127 -1.332351,-0.71093 0.195557,0.53558 0.55508,1.48361 0.351103,2.60342 -0.286918,0.98583 -1.27882,1.64241 -2.120879,1.64242 -1.104922,0 -2.000639,-1.11538 -2.000639,-2.49129 -6.7e-5,-0.30729 -0.01811,-0.82406 0.09203,-1.38646 0.186465,-0.72672 0.572972,-1.80982 2.96296,-1.8106 z"
       sodipodi:nodetypes="cscsccsccsc" /><path
       style="fill:none;fill-opacity:1;stroke:#000000;stroke-width:0.895452;stroke-linecap:round;stroke-dasharray:none;stroke-opacity:1"
       d="m 77.303646,158.07158 c 0,0 0.637058,2.55047 2.065801,3.7111 1.20613,0.97981 -2.217202,3.3211 -3.520811,2.29079"
       id="path32-70"
       sodipodi:nodetypes="csc" /><path
       style="fill:none;fill-opacity:1;stroke:#000000;stroke-width:0.895452;stroke-linecap:round;stroke-dasharray:none;stroke-opacity:1"
       d="m 71.153365,167.53845 c 0,0 1.175861,1.41459 3.144417,1.77142 2.131471,0.38638 3.827791,-0.72317 3.827791,-0.72317"
       id="path33-8"
       sodipodi:nodetypes="csc" /><path
       style="fill:#000000;fill-opacity:1;stroke:none;stroke-width:0.778661;stroke-linecap:round;stroke-dasharray:none;stroke-opacity:1"
       d="m 79.693317,146.11864 c 0,0 -0.603004,0.12593 -0.354483,0.93931 0.248516,0.81339 1.27229,0.44228 1.52542,0.37369 0.253126,-0.0686 1.417212,-0.27282 2.480601,-0.25056 1.027098,0.0215 2.3365,0.56617 2.860668,1.11747 0.524168,0.5513 0.910136,-0.23725 0.594047,-0.47017 -0.316088,-0.2329 -2.024756,-1.55947 -3.481583,-1.68003 -1.456827,-0.12056 -3.624665,-0.0297 -3.624665,-0.0297 z"
       id="path35-1"
       sodipodi:nodetypes="cssssssc" /><path
       style="fill:#000000;fill-opacity:1;stroke:none;stroke-width:0.778661;stroke-linecap:round;stroke-dasharray:none;stroke-opacity:1"
       d="m 69.168311,147.05599 c 0,0 0.614947,-0.0362 0.587824,0.8139 -0.02713,0.85008 -1.112324,0.75965 -1.374582,0.75965 -0.262256,1e-5 -1.439235,0.10735 -2.459784,0.40698 -0.985719,0.2894 -2.107086,1.15756 -2.468814,1.82676 -0.361728,0.66922 -0.940509,0.009 -0.69634,-0.29841 0.244166,-0.30748 1.546393,-2.03477 2.920977,-2.53217 1.374582,-0.49738 3.490719,-0.97671 3.490719,-0.97671 z"
       id="path35-8-9"
       sodipodi:nodetypes="cssssssc" /><path
       style="fill:none;fill-opacity:1;stroke:#000000;stroke-width:0.912;stroke-linecap:round;stroke-linejoin:round;stroke-dasharray:none;stroke-opacity:1"
       d="m 39.914284,57.30119 c 0,0 3.023811,-1.663094 4.686906,1.360715 1.238645,2.252082 0.755953,2.872618 0.755953,2.872618 0,0 -0.755953,-1.360715 -2.872619,-1.360715"
       id="path36"
       sodipodi:nodetypes="cscc" /><path
       style="fill:none;fill-opacity:1;stroke:#000000;stroke-width:0.912;stroke-linecap:round;stroke-linejoin:round;stroke-dasharray:none;stroke-opacity:1"
       d="m 47.62146,155.23564 c 0,0 3.023807,-1.6631 4.686907,1.36071 1.23864,2.25208 0.75595,2.87262 0.75595,2.87262 0,0 -0.75595,-1.36072 -2.87262,-1.36072"
       id="path36-6"
       sodipodi:nodetypes="cscc" /><path
       style="fill:none;fill-opacity:1;stroke:#000000;stroke-width:0.912;stroke-linecap:round;stroke-linejoin:round;stroke-dasharray:none;stroke-opacity:1"
       d="m 159.54009,129.68351 c 0,0 -3.3252,-0.92323 -4.24844,2.40197 -0.6876,2.47655 -0.0752,2.96947 -0.0752,2.96947 0,0 0.4228,-1.49808 2.48276,-1.98479"
       id="path36-6-0"
       sodipodi:nodetypes="cscc" /><path
       style="fill:none;fill-opacity:1;stroke:#000000;stroke-width:0.912;stroke-linecap:round;stroke-linejoin:round;stroke-dasharray:none;stroke-opacity:1"
       d="m 156.42074,45.840317 c 0,0 -3.02381,-1.663094 -4.6869,1.360715 -1.23865,2.252082 -0.75596,2.872618 -0.75596,2.872618 0,0 0.75596,-1.360715 2.87262,-1.360715"
       id="path36-9"
       sodipodi:nodetypes="cscc" /><path
       style="fill:#000000;fill-opacity:1;stroke:none;stroke-width:0.912;stroke-linecap:round;stroke-linejoin:round;stroke-dasharray:none;stroke-opacity:1"
       d="m 129.05653,35.858661 c 0,0 -1.90553,-0.519692 -1.90553,0.346462 0,0.86615 -0.17323,2.771682 2.07876,2.598451 2.252,-0.173228 3.46461,-1.38584 5.7166,-0.86615 2.25199,0.519692 5.7166,2.425223 6.06306,1.732303 0.34646,-0.692922 -1.7323,-2.944915 -4.15752,-3.811066 -2.42523,-0.86615 -7.79537,0 -7.79537,0 z"
       id="path38" /><path
       style="fill:#000000;fill-opacity:1;stroke:none;stroke-width:0.794909;stroke-linecap:round;stroke-linejoin:round;stroke-dasharray:none;stroke-opacity:1"
       d="m 117.52258,36.004021 c 0,0 1.57304,-0.478262 1.57304,0.318841 0,0.7971 0.14301,2.55072 -1.71605,2.391299 -1.85905,-0.159418 -2.86009,-1.275359 -4.71914,-0.797099 -1.85905,0.478261 -4.71914,2.231881 -5.00515,1.594201 -0.28601,-0.637681 1.43004,-2.710142 3.4321,-3.507242 2.00206,-0.7971 6.4352,0 6.4352,0 z"
       id="path38-5" /><path
       id="path31-2"
       style="fill:#000000;fill-opacity:1;stroke:none;stroke-width:0.83509;stroke-dasharray:none;stroke-opacity:1"
       d="m 140.28694,126.63074 c 0.17027,-0.004 0.34997,-0.002 0.53958,0.009 1.95487,0.11142 2.89267,2.57911 2.89267,2.57911 0,0 -0.15027,0.43788 -1.18515,-0.34249 -0.37623,-0.2837 -0.72035,-0.81716 -1.44326,-0.72352 0.22358,0.56707 0.63362,1.57044 0.44612,2.77275 -0.2798,1.06137 -1.32197,1.79008 -2.2219,1.81302 -1.18084,0.0301 -2.16848,-1.13755 -2.20593,-2.60799 -0.008,-0.32841 -0.0418,-0.88021 0.0606,-1.48424 0.1795,-0.78173 0.56308,-1.94977 3.11726,-2.01568 z"
       sodipodi:nodetypes="cscsccsccsc"
       inkscape:transform-center-x="-0.19893484"
       inkscape:transform-center-y="-1.193609" /><path
       id="path31-4-53"
       style="fill:#000000;fill-opacity:1;stroke:none;stroke-width:0.83509;stroke-dasharray:none;stroke-opacity:1"
       d="m 124.09552,127.0009 c -0.16922,0.0194 -0.34679,0.0472 -0.53305,0.0842 -1.92023,0.38296 -2.50476,2.95728 -2.50476,2.95728 0,0 0.20986,0.41265 1.12581,-0.50441 0.33299,-0.33339 0.59937,-0.90962 1.32827,-0.9177 -0.14232,0.5927 -0.40844,1.64346 -0.0551,2.80786 0.42506,1.01199 1.55867,1.58825 2.45299,1.48547 1.1735,-0.13487 1.98866,-1.42882 1.82071,-2.89012 -0.0374,-0.32637 -0.0814,-0.87742 -0.26699,-1.46128 -0.28674,-0.74907 -0.82945,-1.8522 -3.36787,-1.5613 z"
       sodipodi:nodetypes="cscsccsccsc" /><path
       style="fill:none;fill-opacity:1;stroke:#000000;stroke-width:0.957291;stroke-linecap:round;stroke-dasharray:none;stroke-opacity:1"
       d="m 130.8621,133.81818 c 0,0 -0.36527,2.78654 -1.74101,4.19362 -1.16139,1.18784 2.76021,3.25657 4.01896,2.00319"
       id="path32-4"
       sodipodi:nodetypes="csc" /><path
       style="fill:none;fill-opacity:1;stroke:#000000;stroke-width:0.957291;stroke-linecap:round;stroke-dasharray:none;stroke-opacity:1"
       d="m 138.5497,143.12187 c 0,0 -1.07616,1.64593 -3.12333,2.26521 -2.21661,0.67054 -4.15365,-0.3008 -4.15365,-0.3008"
       id="path33-9"
       sodipodi:nodetypes="csc" /><path
       style="fill:#000000;fill-opacity:1;stroke:none;stroke-width:0.832435;stroke-linecap:round;stroke-dasharray:none;stroke-opacity:1"
       d="m 126.86504,121.41508 c 0,0 0.6558,0.0601 0.49114,0.95434 -0.16465,0.8942 -1.29726,0.62503 -1.57448,0.58309 -0.2772,-0.0419 -1.53848,-0.11676 -2.66515,0.0367 -1.08821,0.14823 -2.4124,0.88651 -2.9018,1.53602 -0.48941,0.64951 -0.99559,-0.14088 -0.68832,-0.42684 0.30728,-0.28594 1.96007,-1.90342 3.4926,-2.20929 1.53252,-0.30587 3.846,-0.47401 3.846,-0.47401 z"
       id="path35-0"
       sodipodi:nodetypes="cssssssc" /><path
       style="fill:#000000;fill-opacity:1;stroke:none;stroke-width:0.832435;stroke-linecap:round;stroke-dasharray:none;stroke-opacity:1"
       d="m 138.15771,121.12584 c 0,0 -0.65753,0.0366 -0.52495,0.93617 0.1326,0.89952 1.27409,0.67102 1.55262,0.63901 0.27854,-0.032 1.54167,-0.0617 2.66213,0.13197 1.08222,0.18703 2.37917,0.9722 2.84503,1.63878 0.46587,0.6666 0.99999,-0.10519 0.70313,-0.40194 -0.29685,-0.29675 -1.89075,-1.97229 -3.41136,-2.33276 -1.52061,-0.36047 -3.8266,-0.61123 -3.8266,-0.61123 z"
       id="path35-8-2"
       sodipodi:nodetypes="cssssssc" /><path
       style="fill:#000000;fill-opacity:1;stroke:#000000;stroke-width:0.912;stroke-linecap:round;stroke-linejoin:round;stroke-dasharray:none;stroke-opacity:1"
       d="m 154.03165,192.43406 -2.6727,-7.17408"
       id="path62" /><path
       style="fill:#d3b67a;fill-opacity:1;stroke:#000000;stroke-width:0.912;stroke-linecap:round;stroke-linejoin:round;stroke-dasharray:none;stroke-opacity:1"
       d="m 65.037311,181.2052 c 0,0 4.281214,1.56018 6.99087,1.16851 1.357685,-0.19624 1.695883,1.3291 0.778933,2.06254 -0.916947,0.73346 -2.593182,0.85499 -2.593182,0.85499 z"
       id="path86"
       sodipodi:nodetypes="csscc" /><path
       style="fill:#d3b67a;fill-opacity:1;stroke:#000000;stroke-width:1.03848;stroke-linecap:round;stroke-linejoin:round;stroke-dasharray:none;stroke-opacity:1"
       d="m 141.45789,158.76853 c 0,0 -4.87498,1.77655 -7.96042,1.33056 -1.54599,-0.22345 -1.93108,1.51343 -0.88696,2.34859 1.04411,0.83519 2.95282,0.97357 2.95282,0.97357 z"
       id="path86-8"
       sodipodi:nodetypes="csscc" /></g></svg>
