<?xml version="1.0" encoding="UTF-8" standalone="no"?>
<!-- Created with Inkscape (http://www.inkscape.org/) -->

<svg
   width="210mm"
   height="210mm"
   viewBox="0 0 210 210"
   version="1.1"
   id="svg1"
   inkscape:version="1.4.4 (dcaf3e7d9e, 2026-05-05)"
   sodipodi:docname="fruta.svg"
   xml:space="preserve"
   xmlns:inkscape="http://www.inkscape.org/namespaces/inkscape"
   xmlns:sodipodi="http://sodipodi.sourceforge.net/DTD/sodipodi-0.dtd"
   xmlns="http://www.w3.org/2000/svg"
   xmlns:svg="http://www.w3.org/2000/svg"><sodipodi:namedview
     id="namedview1"
     pagecolor="#ffffff"
     bordercolor="#000000"
     borderopacity="0.25"
     inkscape:showpageshadow="2"
     inkscape:pageopacity="0.0"
     inkscape:pagecheckerboard="0"
     inkscape:deskcolor="#d1d1d1"
     inkscape:document-units="mm"
     inkscape:zoom="0.57894368"
     inkscape:cx="494.00315"
     inkscape:cy="399.86618"
     inkscape:window-width="1534"
     inkscape:window-height="831"
     inkscape:window-x="0"
     inkscape:window-y="0"
     inkscape:window-maximized="1"
     inkscape:current-layer="layer1" /><defs
     id="defs1" /><g
     inkscape:label="Layer 1"
     inkscape:groupmode="layer"
     id="layer1"><g
       id="g2"
       transform="matrix(1.2508008,0,0,1.2508008,-26.774656,-44.917861)"><ellipse
         style="fill:#89cbd3;fill-opacity:1;fill-rule:evenodd;stroke:none;stroke-width:1.02955;stroke-linecap:round;stroke-linejoin:round"
         id="path271"
         cx="104.93447"
         cy="157.98778"
         rx="80.177032"
         ry="21.110001" /><g
         id="g9"
         transform="translate(-8.5319083,0.36244292)"><path
           style="fill:#da724e;fill-opacity:1;fill-rule:evenodd;stroke:#000000;stroke-width:0.912;stroke-linecap:round;stroke-linejoin:round;stroke-dasharray:none;stroke-opacity:1"
           d="m 75.146609,93.698547 c 0,0 -3.753332,-0.234576 -9.617892,-1.642075 -5.864573,-1.4075 -17.359116,-0.938333 -21.347024,7.975798 -3.987908,8.91415 -3.049575,22.05077 2.814998,31.43409 5.86456,9.3833 12.667453,19.47035 16.65536,20.64326 3.987908,1.17291 7.975816,-2.58041 11.963724,-2.34583 3.987894,0.23459 4.691651,1.87667 7.272059,2.815 2.580408,0.93833 7.975802,0.93833 14.778708,-6.56832 6.802888,-7.50665 14.309538,-20.87785 14.544118,-36.36031 0.23459,-15.482446 -11.49454,-20.174097 -19.470359,-18.766598 -7.975801,1.407486 -7.506649,1.407486 -7.506649,1.407486 0,0 -5.864559,1.876666 -10.087043,1.407499 z"
           id="path2" /><path
           style="fill:#cba37e;fill-opacity:1;fill-rule:evenodd;stroke:#000000;stroke-width:0.912;stroke-linecap:round;stroke-linejoin:round;stroke-dasharray:none;stroke-opacity:1"
           d="m 76.084927,97.686455 c 0,0 0,-5.86456 -1.642075,-9.617891 -1.642076,-3.753319 -4.222484,-7.272059 -3.284151,-8.679554 0.938318,-1.407497 3.753317,-2.111245 4.69165,1.407495 0.938333,3.51874 3.284151,11.259967 3.049575,15.717041 -0.23459,4.457064 -2.814999,1.172909 -2.814999,1.172909 z"
           id="path3" /><path
           style="fill:#a7d2b7;fill-opacity:1;fill-rule:evenodd;stroke:#000000;stroke-width:0.912;stroke-linecap:round;stroke-linejoin:round;stroke-dasharray:none;stroke-opacity:1"
           d="m 76.554094,85.488158 c 0,0 -3.284151,-8.444975 3.284165,-14.544124 6.568302,-6.099148 15.951617,-6.333731 15.951617,-6.333731 0,0 3.049575,9.148723 -4.69165,17.359115 -7.74124,8.210388 -14.544132,3.51874 -14.544132,3.51874 z"
           id="path4"
           inkscape:transform-center-x="1.4882812"
           inkscape:transform-center-y="-2.8111979" /><path
           style="fill:#8daf9a;fill-opacity:1;fill-rule:evenodd;stroke:#000000;stroke-width:0.912;stroke-linecap:round;stroke-linejoin:round;stroke-dasharray:none;stroke-opacity:1"
           d="m 74.613947,88.452119 c 0,0 -0.319592,-5.224591 -5.240485,-6.835662 -4.920893,-1.611079 -9.900202,0.535272 -9.900202,0.535272 0,0 0.612854,5.537046 6.659701,7.972014 6.046832,2.434962 8.480986,-1.671624 8.480986,-1.671624 z"
           id="path4-8" /><path
           style="fill:#ffffff;fill-opacity:1;fill-rule:evenodd;stroke-width:1.29374;stroke-linecap:round;stroke-linejoin:round"
           d="m 52.861237,108.24268 c 0.757365,-3.83913 3.51877,-4.45708 6.099164,-8.21039 1.143232,-1.662889 -2.111242,-3.049578 -4.926241,-2.345835 -2.814985,0.703743 -6.333726,6.802895 -5.629983,11.729135 0.703756,4.92624 1.429884,7.15623 4.222498,6.56831 4.45706,-0.93831 -0.522803,-3.90209 0.234562,-7.74122 z"
           id="path5"
           sodipodi:nodetypes="zssssz" /><path
           style="fill:#ffffff;fill-opacity:1;fill-rule:evenodd;stroke-width:1.29374;stroke-linecap:round;stroke-linejoin:round"
           d="m 56.379992,122.31763 c 0,0 -2.111242,-3.51874 -3.284165,-1.17291 -1.172909,2.34582 0,7.27206 3.518742,6.5683 3.518741,-0.70374 -0.234577,-5.39539 -0.234577,-5.39539 z"
           id="path6" /></g><g
         id="g1"><g
           id="g8"
           transform="matrix(1.0935509,0,0,1.0935509,-143.94523,7.937571)"><path
             style="fill:#8daf9a;fill-opacity:1;fill-rule:evenodd;stroke:#000000;stroke-width:0.83398;stroke-linecap:round;stroke-linejoin:round;stroke-dasharray:none;stroke-opacity:1"
             d="m 248.27934,50.55176 c 0,0 -2.1172,-5.824495 2.11721,-10.031075 4.2344,-4.20658 10.28356,-4.368372 10.28356,-4.368372 0,0 1.96598,6.30987 -3.02458,11.972574 -4.99056,5.662696 -9.37619,2.426873 -9.37619,2.426873 z"
             id="path4-9"
             inkscape:transform-center-x="0.95945301"
             inkscape:transform-center-y="-1.938882" /><path
             style="fill:#bcf25e;fill-opacity:1;fill-rule:evenodd;stroke:#000000;stroke-width:0.83398;stroke-linecap:round;stroke-linejoin:round;stroke-dasharray:none;stroke-opacity:1"
             d="m 251.02065,57.363445 c 0,0 -9.33823,-0.222339 -12.0063,3.557421 -2.66807,3.779764 -4.22444,12.006303 -5.55848,17.787116 -1.20093,5.203994 -7.55952,18.676465 -9.11589,23.123258 -1.55637,4.44677 -6.00315,11.78396 -3.55742,20.89985 2.44572,9.1159 16.45308,14.67437 31.12745,14.2297 14.67437,-0.44468 26.68067,-8.00421 28.0147,-15.78607 1.33404,-7.78186 -2.66806,-19.12115 -7.78186,-25.124303 -5.1138,-6.00315 -6.89251,-15.119046 -7.55952,-21.789212 -0.66702,-6.67017 -2.44573,-16.67542 -13.56268,-16.89776 z"
             id="path7"
             sodipodi:nodetypes="cssssssssc" /><path
             style="fill:#cba37e;fill-opacity:1;fill-rule:evenodd;stroke:#000000;stroke-width:0.83398;stroke-linecap:round;stroke-linejoin:round;stroke-dasharray:none;stroke-opacity:1"
             d="m 251.02066,60.031513 c 0,0 -0.44468,-10.227593 -4.89146,-13.785017 -4.44677,-3.55742 -7.55952,-0.222337 -5.55847,1.778712 2.00105,2.001052 5.37757,3.080235 7.26401,10.788738 0.48516,1.982478 0.29551,1.884581 0.29551,1.884581 z"
             id="path8"
             sodipodi:nodetypes="cssscc" /></g><path
           style="fill:#ffffff;fill-opacity:1;fill-rule:evenodd;stroke-width:0.912;stroke-linecap:round;stroke-linejoin:round"
           d="m 127.91891,79.533431 c 0,0 -2.53493,-4.594559 -4.75299,-0.158432 -1.08153,2.163065 -2.21806,6.971059 -2.21806,6.971059 0,0 -0.4753,3.168661 2.21806,2.218063 2.69336,-0.9506 4.11926,-4.119261 4.75299,-9.03069 z"
           id="path9"
           sodipodi:nodetypes="cscsc" /><path
           style="fill:#ffffff;fill-opacity:1;fill-rule:evenodd;stroke-width:0.912;stroke-linecap:round;stroke-linejoin:round"
           d="m 108.43164,123.57784 c 0,0 -3.3271,7.28793 -3.3271,10.29816 0,3.01023 0,3.01023 0,3.01023 0,0 1.4259,2.37649 3.01023,0.95059 1.58433,-1.42589 -0.79216,-3.80239 0.4753,-6.33732 1.26747,-2.53493 3.8024,-3.64396 3.8024,-6.81262 0,-3.16867 -2.3765,-2.53493 -3.96083,-1.10904 z"
           id="path10" /></g><g
         id="g17"
         transform="matrix(1.1153233,0,0,1.1153233,-206.67703,-44.902935)"><g
           id="g16"><path
             style="fill:#ffca4f;fill-opacity:1;fill-rule:evenodd;stroke:#000000;stroke-width:0.8177;stroke-linecap:round;stroke-linejoin:round;stroke-dasharray:none;stroke-opacity:1"
             d="m 252.97406,175.75892 c 0,0 0.80995,9.71939 18.35884,11.87926 17.54889,2.15986 31.588,5.12967 51.29676,-6.74958 19.70876,-11.87925 23.74206,-37.96929 19.70876,-62.63605 -0.26501,-1.62072 -0.89253,-1.24986 -0.89253,-1.24986 l -3.96715,-2.5299 c 0,0 2.42983,32.12797 -20.24872,50.48681 -22.67858,18.35885 -64.25596,10.79932 -64.25596,10.79932 z"
             id="path11"
             sodipodi:nodetypes="csssccsc" /><path
             style="fill:#ffea5f;fill-opacity:1;fill-rule:evenodd;stroke:#000000;stroke-width:0.8177;stroke-linecap:round;stroke-linejoin:round;stroke-dasharray:none;stroke-opacity:1"
             d="m 254.86394,173.59907 c 0,0 -3.23979,0.26998 -1.34991,2.96981 1.88988,2.69983 13.22916,3.77976 20.24872,3.50978 7.01956,-0.26998 28.88818,1.34992 49.67688,-15.38903 23.58596,-18.99128 15.659,-46.1671 15.659,-46.1671 0,0 -4.31972,-1.07993 -5.66965,1.07994 -1.3499,2.15986 -8.97661,19.11066 -11.87923,23.51435 -3.289,4.98989 -11.60928,16.44313 -34.55784,23.19271 -22.94855,6.74957 -28.34821,4.85969 -32.12797,7.28954 z"
             id="path12"
             sodipodi:nodetypes="cssscsssc" /><path
             style="fill:#da9516;fill-opacity:1;fill-rule:evenodd;stroke:#000000;stroke-width:0.8177;stroke-linecap:round;stroke-linejoin:round;stroke-dasharray:none;stroke-opacity:1"
             d="m 339.12843,118.96852 c 0,0 -2.25016,-7.42272 -0.26821,-16.98647 0.57875,-2.792666 0.0867,0.53434 0.0867,0.53434 l 3.5138,0.65447 c 0,0 -0.86141,1.85107 -0.67221,9.29981 0.11597,4.56585 0.83863,7.25867 0.83863,7.25867 0,0 -0.85773,-3.52925 -3.18739,-1.03318 z"
             id="path13"
             sodipodi:nodetypes="csccsccc" /><path
             style="fill:#eac00e;fill-opacity:1;fill-rule:evenodd;stroke:#000000;stroke-width:0.8177;stroke-linecap:round;stroke-linejoin:round;stroke-dasharray:none;stroke-opacity:1"
             d="m 333.88961,119.0182 c 0,0 2.24772,-5.69666 2.41411,-9.85677 0.1664,-4.16012 0.33279,-7.1554 0.33279,-7.1554 l 2.21296,-0.70698 c 0,0 -0.19958,4.49781 0.0737,11.97796 0.25542,6.99255 0.24245,5.4369 0.24245,5.4369 0,0 -4.36593,-0.5774 -5.19797,0.42102 z"
             id="path14"
             sodipodi:nodetypes="csccsccc" /><path
             style="fill:#673e0d;fill-opacity:1;fill-rule:evenodd;stroke:#000000;stroke-width:0.8177;stroke-linecap:round;stroke-linejoin:round;stroke-dasharray:none;stroke-opacity:1"
             d="m 338.89452,102.41527 c 0,0 0.63299,1.77233 1.51916,2.27871 0.88617,0.50638 2.09346,-1.43146 2.09346,-1.43146 l 1.19801,-4.138717 -3.54468,-1.265949 c 0,0 -2.4053,0.506378 -3.03826,0.759568 -0.63299,0.253191 -0.37978,3.544658 -0.37978,3.544658 0,0 -0.25321,1.64573 0.63296,1.51914 0.88617,-0.1266 1.51913,-1.26595 1.51913,-1.26595 z"
             id="path15"
             sodipodi:nodetypes="cscccscsc" /><path
             style="fill:#673e0d;fill-opacity:1;fill-rule:evenodd;stroke:#000000;stroke-width:0.912;stroke-linecap:round;stroke-linejoin:round;stroke-opacity:1"
             d="m 252.82973,174.53545 c 0,0 0.10687,2.824 0.99303,4.08995 0.88617,1.26595 -0.40882,-0.64284 0.85712,-0.76944 1.26595,-0.12659 -1.05887,-1.52224 0.8078,-3.82745 0.89109,-1.10044 0.40116,-0.99974 -0.28496,-0.79107 -0.64105,0.19496 -1.11596,0.40135 -1.6216,0.70395 -0.27397,0.16396 -0.75139,0.59406 -0.75139,0.59406 z"
             id="path16"
             sodipodi:nodetypes="csssssc" /></g></g></g></g></svg>
