<?xml version="1.0" encoding="UTF-8" standalone="no"?>
<!-- Created with Inkscape (http://www.inkscape.org/) -->

<svg
   width="210mm"
   height="210mm"
   viewBox="0 0 210 210"
   version="1.1"
   id="svg1"
   xml:space="preserve"
   inkscape:version="1.4.4 (dcaf3e7d9e, 2026-05-05)"
   sodipodi:docname="rio.svg"
   xmlns:inkscape="http://www.inkscape.org/namespaces/inkscape"
   xmlns:sodipodi="http://sodipodi.sourceforge.net/DTD/sodipodi-0.dtd"
   xmlns:xlink="http://www.w3.org/1999/xlink"
   xmlns="http://www.w3.org/2000/svg"
   xmlns:svg="http://www.w3.org/2000/svg"><sodipodi:namedview
     id="namedview1"
     pagecolor="#ffffff"
     bordercolor="#000000"
     borderopacity="0.25"
     inkscape:showpageshadow="2"
     inkscape:pageopacity="0.0"
     inkscape:pagecheckerboard="0"
     inkscape:deskcolor="#d1d1d1"
     inkscape:document-units="mm"
     inkscape:lockguides="false"
     showguides="false"
     inkscape:zoom="0.41"
     inkscape:cx="343.90244"
     inkscape:cy="471.95122"
     inkscape:window-width="1534"
     inkscape:window-height="831"
     inkscape:window-x="0"
     inkscape:window-y="0"
     inkscape:window-maximized="1"
     inkscape:current-layer="layer1" /><defs
     id="defs1"><linearGradient
       id="linearGradient82"
       inkscape:collect="always"><stop
         style="stop-color:#3aa1ad;stop-opacity:1;"
         offset="0"
         id="stop82" /><stop
         style="stop-color:#338e97;stop-opacity:1;"
         offset="1"
         id="stop83" /></linearGradient><linearGradient
       id="linearGradient72"
       inkscape:collect="always"><stop
         style="stop-color:#95c9a8;stop-opacity:1;"
         offset="0"
         id="stop72" /><stop
         style="stop-color:#5dac7a;stop-opacity:1;"
         offset="1"
         id="stop73" /></linearGradient><linearGradient
       id="linearGradient70"
       inkscape:collect="always"><stop
         style="stop-color:#95c9a9;stop-opacity:1;"
         offset="0"
         id="stop70" /><stop
         style="stop-color:#65b081;stop-opacity:1;"
         offset="1"
         id="stop71" /></linearGradient><linearGradient
       id="linearGradient68"
       inkscape:collect="always"><stop
         style="stop-color:#4c9267;stop-opacity:1;"
         offset="0"
         id="stop68" /><stop
         style="stop-color:#3d7653;stop-opacity:1;"
         offset="1"
         id="stop69" /></linearGradient><linearGradient
       id="linearGradient66"
       inkscape:collect="always"><stop
         style="stop-color:#79c38b;stop-opacity:1;"
         offset="0"
         id="stop66" /><stop
         style="stop-color:#50b168;stop-opacity:1;"
         offset="1"
         id="stop67" /></linearGradient><linearGradient
       id="linearGradient64"
       inkscape:collect="always"><stop
         style="stop-color:#cba37e;stop-opacity:1;"
         offset="0"
         id="stop64" /><stop
         style="stop-color:#986b3e;stop-opacity:1;"
         offset="1"
         id="stop65" /></linearGradient><linearGradient
       id="linearGradient62"
       inkscape:collect="always"><stop
         style="stop-color:#cba37e;stop-opacity:1;"
         offset="0"
         id="stop62" /><stop
         style="stop-color:#a97645;stop-opacity:1;"
         offset="1"
         id="stop63" /></linearGradient><linearGradient
       inkscape:collect="always"
       xlink:href="#linearGradient62"
       id="linearGradient63"
       x1="41.080044"
       y1="82.856361"
       x2="43.168861"
       y2="110.01096"
       gradientUnits="userSpaceOnUse" /><linearGradient
       inkscape:collect="always"
       xlink:href="#linearGradient64"
       id="linearGradient65"
       x1="168.4978"
       y1="96.781799"
       x2="166.409"
       y2="113.49232"
       gradientUnits="userSpaceOnUse" /><linearGradient
       inkscape:collect="always"
       xlink:href="#linearGradient66"
       id="linearGradient67"
       x1="50.13158"
       y1="42.472588"
       x2="45.953949"
       y2="87.033989"
       gradientUnits="userSpaceOnUse" /><linearGradient
       inkscape:collect="always"
       xlink:href="#linearGradient68"
       id="linearGradient69"
       x1="169.19408"
       y1="60.575657"
       x2="171.97917"
       y2="98.174339"
       gradientUnits="userSpaceOnUse" /><linearGradient
       inkscape:collect="always"
       xlink:href="#linearGradient70"
       id="linearGradient71"
       x1="24.369518"
       y1="123.9364"
       x2="33.421051"
       y2="146.2171"
       gradientUnits="userSpaceOnUse" /><linearGradient
       inkscape:collect="always"
       xlink:href="#linearGradient72"
       id="linearGradient73"
       x1="183.8158"
       y1="126.02522"
       x2="176.15678"
       y2="151.78728"
       gradientUnits="userSpaceOnUse" /><linearGradient
       inkscape:collect="always"
       xlink:href="#linearGradient82"
       id="linearGradient83"
       x1="110.35061"
       y1="152.6194"
       x2="113.8999"
       y2="122.28913"
       gradientUnits="userSpaceOnUse" /></defs><rect
     style="fill:#d2eae7;fill-opacity:1;stroke:none;stroke-width:0.446;stroke-opacity:1"
     id="rect62"
     width="210.27411"
     height="129.23486"
     x="0.050946694"
     y="0.050946694"
     ry="0" /><path
     id="path41"
     style="fill:url(#linearGradient83);fill-opacity:1;stroke:none;stroke-width:0.446;stroke-opacity:1"
     d="m 98.880786,122.08144 -26.806632,3.48144 -35.161678,13.22917 -37.27584954,11.5874 -3.54928866,60.40013 213.7649722,-0.32266 V 149.79086 C 195.4049,145.24501 158.95016,133.67455 146.22725,128.69602 130.213,122.42958 98.880786,122.08144 98.880786,122.08144 Z"
     sodipodi:nodetypes="cccccccsc" /><g
     inkscape:label="Layer 1"
     inkscape:groupmode="layer"
     id="layer1"><path
       style="fill:#000000"
       d="m -6.7093137,304.79017 c -0.86065,-0.84536 -1.15611,-1.59308 -1.15611,-2.92582 v -1.21632 l 0.43837,-0.16822 0.43837,-0.16822 0.67286,0.37767 c 0.37008,0.20772 0.90496,0.77507 1.18863,1.26079 l 0.51577,0.88311 -0.23794,1.23084 -0.23793,1.23084 -0.52917,0.0245 -0.52917,0.0245 z"
       id="path11" /><g
       id="g47"
       style="stroke:#000000;stroke-opacity:1"><path
         style="fill:url(#linearGradient69);fill-opacity:1;stroke:#000000;stroke-width:0.446;stroke-opacity:1"
         d="m 161.77379,97.215475 c 0,0 -2.41905,3.628575 -7.10595,3.174995 -4.68691,-0.453565 -4.8381,-2.419043 -4.8381,-2.419043 0,0 -5.14047,5.140473 -11.18809,1.209524 -6.04762,-3.930951 -4.38453,-9.222618 -4.38453,-9.222618 0,0 -14.66547,1.058333 -14.66547,-12.095239 0,-13.15357 11.94405,-14.665476 11.94405,-14.665476 0,0 -5.44286,-11.188094 1.36071,-17.084524 6.80357,-5.896427 13.90952,-3.326188 13.90952,-3.326188 0,0 3.93096,-13.455953 15.57262,-12.700001 11.64167,0.755953 15.27024,12.246429 15.27024,12.246429 0,0 8.61786,-6.652381 14.96786,-1.209525 6.35,5.442858 3.47738,13.758334 3.47738,13.758334 0,0 11.33928,-0.45357 12.85119,9.67619 1.5119,10.129761 -6.95476,13.758333 -6.95476,13.758333 0,0 4.6869,10.129761 -2.41905,14.967858 -7.10595,4.838094 -13.00238,3.023809 -13.00238,3.023809 0,0 -1.96548,4.082137 -5.29167,4.384527 -3.32619,0.30238 -6.95476,-1.511909 -6.95476,-1.511909 z"
         id="path47" /><path
         style="fill:url(#linearGradient65);fill-opacity:1;stroke:#000000;stroke-width:0.446;stroke-opacity:1"
         d="m 160.1107,122.61548 c 0,0 1.05833,-8.76905 0.90714,-16.17738 -0.15119,-7.40834 0.45357,-9.071434 0.45357,-9.071434 0,0 -2.72143,-4.233333 -4.98929,-9.827381 -2.26785,-5.594046 -2.87261,-8.013094 -2.87261,-8.013094 0,0 0.45357,1.965475 2.26785,1.511903 1.81429,-0.45357 1.20953,-0.302379 1.20953,-0.302379 0,0 1.20952,4.535712 2.57023,6.501191 1.36072,1.965475 5.14048,3.628569 5.14048,3.628569 l 0.60476,-14.816666 1.36072,0.151191 2.72143,19.65476 c 0,0 3.32619,-1.058333 5.44285,-6.198809 2.11667,-5.140475 3.175,-11.490475 3.175,-11.490475 0,0 -0.15119,5.140475 1.05834,5.594048 1.20952,0.45357 2.57023,0.302382 2.57023,0.302382 0,0 -1.66309,6.652379 -4.23333,10.734521 -2.57024,4.082145 -5.74524,7.257143 -5.74524,7.257143 l 1.96548,19.50358 -14.96786,0.60476 z"
         id="path44" /></g><g
       id="g48"
       transform="translate(8.3552631)"
       style="stroke:#000000;stroke-opacity:1"><path
         style="fill:url(#linearGradient67);fill-opacity:1;stroke:#000000;stroke-width:0.446;stroke-opacity:1"
         d="m 32.657144,89.429167 c 0,0 -6.803572,6.954761 -14.665477,1.058334 -7.861904,-5.896428 -4.082143,-12.7 -4.082143,-12.7 0,0 -12.5488079,-2.267858 -10.7345229,-15.421428 C 4.989286,49.212501 14.665476,49.363692 14.665476,49.363692 c 0,0 -4.233332,-10.885715 4.384524,-17.084524 8.617858,-6.198809 14.967858,0.907142 14.967858,0.907142 0,0 8.769049,-14.363094 21.166668,-8.013094 12.397618,6.35 8.013094,18.142858 8.013094,18.142858 0,0 12.548809,-4.233334 15.270239,5.745236 2.721427,9.978573 -2.267858,16.328573 -2.267858,16.328573 0,0 9.222619,6.35 3.02381,14.967857 -6.19881,8.617855 -15.421428,13.002379 -25.097619,6.80357 -9.67619,-6.198809 -21.469048,2.267857 -21.469048,2.267857 z"
         id="path46" /><path
         style="fill:url(#linearGradient63);fill-opacity:1;stroke:#000000;stroke-width:0.446;stroke-opacity:1"
         d="m 34.47143,113.16609 c 0,0 2.267857,-5.89643 2.419048,-12.09525 0.15119,-6.198815 0.15119,-8.617864 0.15119,-8.617864 0,0 -4.384524,-1.209524 -7.710715,-6.652381 -3.32619,-5.442855 -3.175,-6.80357 -3.175,-6.80357 l 2.419048,-0.907143 c 0,0 2.267857,5.442858 4.082143,6.652379 1.814286,1.209525 5.594048,3.628573 5.594048,3.628573 l 2.267857,-19.957142 c 0,0 0.302381,0.907142 1.663096,1.663094 1.360714,0.755954 3.175,0.755954 3.175,0.755954 l -0.453572,16.32857 c 0,0 4.082143,-0.604761 6.652381,-3.175 2.570238,-2.570237 3.477381,-4.838094 3.477381,-4.838094 l 3.628573,1.663094 c 0,0 -3.175001,5.291666 -5.594049,7.105951 -2.419048,1.814288 -6.954762,4.686906 -6.954762,4.686906 0,0 -0.604762,18.596443 0.755952,22.225013 1.360715,3.62857 -12.397619,-1.66309 -12.397619,-1.66309 z"
         id="path45" /></g><g
       id="g62"
       style="fill:#72beb5;fill-opacity:1"><path
         style="fill:#72beb5;fill-opacity:1;stroke:none;stroke-width:0.446;stroke-opacity:1"
         d="m 106.5296,123.9364 c 0,0 4.52577,1.04441 5.22204,3.8295 0.69628,2.78508 -0.87034,6.96272 -6.26644,8.7034 -5.39611,1.74068 -13.577307,2.08881 -20.888162,8.52933 -7.310856,6.44051 -16.188322,11.66255 -38.294955,13.5773 -22.106634,1.91475 -45.95394703,25.06579 -45.95394703,25.06579 l 0.34813594,-11.48849 c 0,0 18.10307009,-10.44408 25.93612809,-12.35882 7.833061,-1.91475 23.673247,-4.69984 32.724783,-6.26645 9.051533,-1.56661 12.88103,-1.74068 20.888155,-8.7034 8.007128,-6.96272 9.747808,-7.13679 17.929002,-9.05154 8.18119,-1.91474 13.3162,-4.17762 10.79222,-8.87746 -1.00529,-1.87192 -1.91475,-1.91475 -2.43696,-2.95916 z"
         id="path57"
         sodipodi:nodetypes="cssssccsssssc" /><path
         style="fill:#72beb5;fill-opacity:1;stroke:none;stroke-width:0.446;stroke-opacity:1"
         d="m 77.460251,148.13185 c 0,0 -2.262883,4.00357 1.392544,6.26645 3.655428,2.26288 13.925439,1.74068 13.229167,5.04797 -0.696272,3.30729 -9.921875,7.65899 -13.229167,9.92187 -3.307291,2.26289 -3.655427,5.57018 2.088817,8.00713 5.744242,2.43695 15.840186,7.13679 14.621708,10.61815 -1.218475,3.48136 -24.378006,23.23595 -25.596484,25.49883 -1.218475,2.26289 8.491121,1.29915 10.928074,-0.0934 2.43695,-1.39255 6.487216,-12.35034 9.620441,-14.26509 3.133222,-1.91475 12.881039,-9.7478 12.358829,-13.5773 -0.5222,-3.8295 -20.540025,-9.57374 -20.714092,-12.70697 -0.174069,-3.13322 4.385663,-4.1564 11.140349,-7.13678 1.995456,-0.88046 7.603803,-2.29261 3.481361,-7.13679 -1.665654,-1.95727 -11.989463,-4.59794 -12.859804,-7.90523 -0.870339,-3.3073 -1.935976,-4.9758 -1.935976,-4.9758 z"
         id="path58"
         sodipodi:nodetypes="cssssssssssssscc" /><path
         style="fill:#72beb5;fill-opacity:1;stroke:none;stroke-width:0.446;stroke-opacity:1"
         d="m 0.34813592,195.82648 c 0,0 5.04797158,-9.39967 9.22560248,-11.14035 4.1776316,-1.74068 9.3996716,-3.13323 21.5844296,-3.8295 12.184758,-0.69627 28.721216,-5.39611 32.202577,-8.35526 3.481358,-2.95916 5.396108,-7.83306 6.78865,-12.5329 1.392544,-4.69983 2.088817,-0.34813 2.088817,-0.34813 0,0 2.611019,8.87746 -4.003564,13.92544 -6.614583,5.04797 -26.458333,10.96628 -38.120889,10.96628 -11.662553,0 -19.147476,0.87034 -23.6732436,7.48492 -4.5257676,6.61458 -6.26644738,14.09951 -6.26644738,14.09951 z"
         id="path59" /><path
         style="fill:#72beb5;fill-opacity:1;stroke:none;stroke-width:0.446;stroke-opacity:1"
         d="m 123.9364,128.8103 c 0,0 -1.56661,-2.61102 -2.95915,-2.95915 -1.39254,-0.34814 -1.39254,-0.34814 -0.52221,1.91474 0.87034,2.26289 0.87034,6.44052 -4.52576,8.35527 -5.39611,1.91474 -16.188328,5.57017 -19.147478,6.78865 -2.95916,1.21847 -6.09238,3.48136 -4.69984,6.61458 1.39254,3.13323 5.91831,7.48492 16.362388,8.00713 10.44408,0.5222 15.14392,-0.87034 16.01426,2.43695 0.87034,3.30729 -11.30593,5.37487 -14.78729,8.68217 -3.48136,3.30729 3.18296,8.65022 7.14953,10.68607 4.73375,2.42962 9.4591,3.20965 11.54791,5.64661 2.08882,2.43695 -1.61755,7.68446 -1.09534,10.99175 0.5222,3.30729 9.65015,15.02079 9.65015,15.02079 l 27.57067,-0.0255 c 0,0 -23.49917,-6.44052 -25.23985,-10.61815 -1.74068,-4.17763 1.21847,-8.52933 1.21847,-11.14035 0,-2.61102 -5.57017,-7.31086 -18.10307,-12.53289 -12.53289,-5.22204 -0.34813,-8.00713 1.04441,-8.7034 1.39254,-0.69628 5.39611,-3.8295 5.22204,-6.09238 -0.17407,-2.26288 -2.61102,-6.96272 -13.92544,-8.35527 -11.31442,-1.39254 -17.733703,0.34814 -17.385573,-5.3961 0.348142,-5.74425 13.730143,-5.04797 18.952183,-7.659 5.22204,-2.61101 7.31086,-6.26644 7.65899,-11.66255 z"
         id="path60"
         sodipodi:nodetypes="csssssssssssccsssssssscc" /><path
         style="fill:#72beb5;fill-opacity:1;stroke:none;stroke-width:0.446;stroke-opacity:1"
         d="m 115.75521,139.42845 c 0,0 -1.74069,7.13679 4.17763,9.92188 5.91831,2.78508 14.27357,1.39254 15.84018,7.48492 1.56662,6.09238 -2.78508,9.05153 0.34814,13.5773 3.13322,4.52577 15.84018,7.65899 20.88816,8.00713 5.04797,0.34813 7.83305,2.95915 11.14035,9.92187 3.30729,6.96272 14.0995,6.61459 17.58086,8.1812 3.48136,1.56661 10.61815,12.88103 10.61815,12.88103 l 12.35883,0.69627 c 0,0 -5.39611,-8.7034 -9.74781,-11.48849 -4.3517,-2.78509 -8.87747,-5.04797 -20.71409,-8.7034 -11.83662,-3.65542 -10.27001,-15.66611 -18.10307,-17.75493 -7.83306,-2.08882 -18.10307,-0.5222 -20.19189,-9.05154 -2.08881,-8.52933 0.84743,-12.20009 -10.61814,-14.79577 -15.28402,-3.46013 -11.83662,-12.35883 -11.83662,-12.35883 z"
         id="path61"
         sodipodi:nodetypes="cssssssccssssscc" /><path
         style="fill:#72beb5;fill-opacity:1;stroke:none;stroke-width:0.446;stroke-opacity:1"
         d="m 147.78371,159.62034 c 0,0 6.61458,8.87747 15.49205,9.57374 8.87747,0.69627 17.929,-1.91475 23.32511,0.87034 5.39611,2.78509 17.58086,9.39967 21.58443,16.88459 4.00356,7.48493 1.91474,-6.44051 1.91474,-6.44051 0,0 -2.43695,-4.69984 -8.70339,-7.83306 -6.26645,-3.13323 -9.39967,-6.96272 -20.01782,-7.31086 -10.61815,-0.34813 -20.19189,1.21848 -28.72122,-3.65542 -8.52933,-4.87391 -4.8739,-2.08882 -4.8739,-2.08882 z"
         id="path62" /></g></g><path
     style="fill:url(#linearGradient71);fill-opacity:1;stroke:#000000;stroke-width:0.446;stroke-opacity:1"
     d="m -1.0091788,108.64805 -0.3226626,50.90517 c 0,0 20.4719124,-8.9659 27.2272314,-10.65473 6.75532,-1.68883 22.799201,-5.06649 32.932181,-5.9109 10.132978,-0.84442 8.72562,-5.06649 17.732711,-7.03679 9.007094,-1.9703 27.021278,-3.09619 27.021278,-5.91091 0,-2.81472 -11.258866,-10.97739 -28.428636,-14.35505 -17.169768,-3.37766 -76.1621028,-7.03679 -76.1621028,-7.03679 z"
     id="path42"
     sodipodi:nodetypes="ccsssssc" /><path
     style="fill:url(#linearGradient73);fill-opacity:1;stroke:#000000;stroke-width:0.446;stroke-opacity:1"
     d="m 211.59114,105.55186 c 0,0 -41.30081,5.62943 -54.81144,11.82181 -13.51064,6.19238 -31.24335,12.66622 -33.21365,18.8586 -1.97031,6.19237 9.8515,9.57003 21.39184,9.57003 11.54033,0 29.55452,-0.84441 34.33954,4.22208 4.78501,5.06649 3.09618,7.31826 12.66622,10.13298 9.57004,2.81471 20.19044,3.61794 20.19044,3.61794 z"
     id="path43"
     sodipodi:nodetypes="cssssscc" /><g
     id="g50"
     style="fill:#373737;fill-opacity:1;stroke:#000000;stroke-opacity:1"
     transform="translate(-362.25236,160.26191)"><path
       style="fill:#373737;fill-opacity:1;stroke:#000000;stroke-width:0.446;stroke-opacity:1"
       d="m 428.17142,39.309524 c 0,0 -18.74761,1.814285 -18.14285,-3.628573 0.60476,-5.442857 9.67618,-12.699999 16.93333,-15.119046 7.25715,-2.419048 16.93334,-3.02381 19.95715,2.419047 3.02379,5.442857 4.23334,13.909523 -18.74763,16.328572 z"
       id="path48" /><path
       style="fill:#373737;fill-opacity:1;stroke:#000000;stroke-width:0.446;stroke-opacity:1"
       d="m 388.8619,-13.304762 c 0,0 -0.60475,-9.67619 6.65237,-13.304762 7.25715,-3.62857 12.7,-4.838094 18.74763,1.209524 6.04761,6.047619 9.67619,17.5380953 1.81428,16.9333334 C 408.21427,-9.0714284 393.7,-6.047619 388.8619,-13.304762 Z"
       id="path49" /><path
       style="fill:#373737;fill-opacity:1;stroke:#000000;stroke-width:0.446;stroke-opacity:1"
       d="m 514.65239,-3.0238094 c 0,0 -1.81431,-12.6999996 8.46666,-15.7238096 10.28094,-3.023809 16.93334,-6.652381 19.95713,-2.419047 3.02381,4.233333 13.30475,15.7238088 5.44287,18.1428566 -7.86191,2.4190475 -28.42381,4.2333332 -33.86666,0 z"
       id="path50" /></g></svg>
